<svg xmlns="http://www.w3.org/2000/svg" viewBox="0 0 400 100" width="400" height="100" role="img" >
<path d="M 2861.2530517578125 818.4271087646484 C 2861.774129231771 822.0914624532064 2860.958699544271 835.2887242635092 2864.3795166015625 840.4132308959961 C 2867.800333658854 845.537737528483 2876.6870930989585 847.8667526245117 2881.7779541015625 849.1741485595703 C 2886.8688151041665 850.4815444946289 2891.06494140625 849.354123433431 2894.9246826171875 848.2576065063477 C 2898.784423828125 847.1610895792643 2900.807373046875 845.3491376241049 2904.9364013671875 842.5950469970703 C 2909.0654296875 839.8409563700358 2916.159383138021 835.6726620992025 2919.6988525390625 831.7330627441406 C 2923.238321940104 827.7934633890787 2926.6162923177085 822.1589635213217 2926.1732177734375 818.9574508666992 C 2925.7301432291665 815.7559382120768 2919.31201171875 811.2541732788086 2917.0404052734375 812.5239868164062 C 2914.768798828125 813.7938003540039 2914.219482421875 826.6180521647135 2912.5435791015625 826.5763320922852 C 2910.86767578125 826.5346120198568 2909.275146484375 813.5738461812338 2906.9849853515625 812.2736663818359 C 2904.69482421875 810.9734865824381 2899.2123209635415 815.640552520752 2898.8026123046875 818.7752532958984 C 2898.3929036458335 821.9099540710449 2901.53759765625 827.0753962198893 2904.5267333984375 831.0818710327148 C 2907.515869140625 835.0883458455404 2911.88818359375 839.2042083740234 2916.7374267578125 842.8141021728516 C 2921.586669921875 846.4239959716797 2927.8729248046875 851.2292696634928 2933.6221923828125 852.7412338256836 C 2939.3714599609375 854.2531979878744 2945.387898763021 853.3996493021647 2951.2330322265625 851.8858871459961 C 2957.078165690104 850.3721249898275 2965.705607096354 848.3807652791342 2968.6929931640625 843.6586608886719 C 2971.680379231771 838.9365564982096 2969.0799560546875 826.9041608174642 2969.1573486328125 823.5532608032227" fill="none" stroke="#000000" stroke-width="12" opacity="1" data-start="0" data-end="9999" data-layer="0" class=""></path>
</svg>
