<svg xmlns="http://www.w3.org/2000/svg" viewBox="0 0 400 100" width="400" height="100" role="img" >
<g data-start="0" data-end="9999" data-layer="0" class=""><path d="M 2172.3985595703125 1690.448257446289 C 2169.4756673177085 1689.6055755615234 2162.8726806640625 1686.212885538737 2154.8612060546875 1685.3921661376953 C 2146.8497314453125 1684.5714467366536 2132.957071940104 1685.0044809977214 2124.3297119140625 1685.523941040039 C 2115.702351888021 1686.0434010823567 2108.8617350260415 1685.7346445719402 2103.0970458984375 1688.5089263916016 C 2097.3323567708335 1691.283208211263 2090.1146647135415 1696.9878540039062 2089.7415771484375 1702.1696319580078 C 2089.3684895833335 1707.3514099121094 2095.03759765625 1716.0727233886719 2100.8585205078125 1719.599594116211 C 2106.679443359375 1723.12646484375 2116.6683349609375 1722.708979288737 2124.6671142578125 1723.3308563232422 C 2132.6658935546875 1723.9527333577473 2141.1629231770835 1724.0771077473958 2148.8511962890625 1723.3308563232422 C 2156.5394694010415 1722.5846048990886 2165.4224446614585 1722.3802185058594 2170.7967529296875 1718.8533477783203 C 2176.1710611979165 1715.3264770507812 2180.7886962890625 1706.8677266438801 2181.0970458984375 1702.1696319580078 C 2181.4053955078125 1697.4715372721355 2175.377644856771 1693.1166610717773 2172.6468505859375 1690.664779663086 C 2169.916056315104 1688.2128982543945 2166.034708658854 1687.9927495320637 2164.7122802734375 1687.4583435058594" fill="#f184dd" stroke="#f675ff" stroke-width="3" opacity="1" data-start="0" data-end="9999" data-layer="0" class=""></path><path d="M 1945.2103271484375 1684.912826538086 C 1942.2874348958333 1684.0701446533203 1935.6844482421875 1680.677454630534 1927.6729736328125 1679.8567352294922 C 1919.6614990234375 1679.0360158284504 1905.7688395182292 1679.4690500895183 1897.1414794921875 1679.988510131836 C 1888.5141194661458 1680.5079701741536 1881.6735026041667 1680.199213663737 1875.9088134765625 1682.9734954833984 C 1870.1441243489583 1685.7477773030598 1862.9264322916667 1691.4524230957031 1862.5533447265625 1696.6342010498047 C 1862.1802571614583 1701.8159790039062 1867.849365234375 1710.5372924804688 1873.6702880859375 1714.0641632080078 C 1879.4912109375 1717.5910339355469 1889.4801025390625 1717.173548380534 1897.4788818359375 1717.795425415039 C 1905.4776611328125 1718.4173024495442 1913.9746907552083 1718.5416768391926 1921.6629638671875 1717.795425415039 C 1929.3512369791667 1717.0491739908855 1938.2342122395833 1716.8447875976562 1943.6085205078125 1713.3179168701172 C 1948.9828287760417 1709.7910461425781 1953.6004638671875 1701.332295735677 1953.9088134765625 1696.6342010498047 C 1954.2171630859375 1691.9361063639324 1948.1894124348958 1687.5812301635742 1945.4586181640625 1685.1293487548828 C 1942.7278238932292 1682.6774673461914 1938.8464762369792 1682.4573186238606 1937.5240478515625 1681.9229125976562" fill="#f184dd" stroke="#f675ff" stroke-width="3" opacity="1" data-start="0" data-end="9999" data-layer="0" class=""></path></g>
</svg>
