<svg xmlns="http://www.w3.org/2000/svg" viewBox="0 0 400 100" width="400" height="100" role="img" >
<g data-start="0" data-end="9999" data-layer="0" class=""><path d="M 29.68182373046875 23.404705047607422 C 28.173507690429688 27.594473520914715 21.469884236653645 46.36464055379232 20.631927490234375 48.54331588745117 C 19.793970743815105 50.721991221110024 23.983723958333332 38.487850189208984 24.654083251953125 36.47675704956055" fill="none" stroke="#000000" stroke-width="12" opacity="1" data-start="0" data-end="9999" data-layer="0" class=""></path><path d="M 67.01885986328125 20.381603240966797 C 66.34849548339844 22.89546839396159 64.50499471028645 30.437074025472004 62.996673583984375 35.46479415893555 C 61.48835245768229 40.492514292399086 58.80688985188802 48.0340690612793 57.96893310546875 50.54792404174805" fill="none" stroke="#000000" stroke-width="12" opacity="1" data-start="0" data-end="9999" data-layer="0" class=""></path><path d="M 105.65286254882812 21.286205291748047 C 104.97724914550781 23.48063786824544 103.18906656901042 29.82528305053711 101.59918212890625 34.45280075073242 C 100.00929768880208 39.080318450927734 97.02782694498698 46.61822636922201 96.11355590820312 49.05131149291992" fill="none" stroke="#000000" stroke-width="12" opacity="1" data-start="0" data-end="9999" data-layer="0" class=""></path><path d="M 264.3451843261719 24.706645965576172 C 263.9082438151042 27.312577565511067 262.80016072591144 34.82224146525065 261.7235412597656 40.34223556518555 C 260.6469217936198 45.862229665120445 258.525146484375 54.91254806518555 257.8854675292969 57.82661056518555" fill="none" stroke="#000000" stroke-width="12" opacity="1" data-start="0" data-end="9999" data-layer="0" class=""></path><path d="M 296.4952697753906 23.600826263427734 C 295.8196512858073 26.689337412516277 293.68577067057294 36.55576197306315 292.4415588378906 42.131893157958984 C 291.1973470052083 47.70802434285482 289.5985921223958 54.569993336995445 289.0299987792969 57.057613372802734" fill="none" stroke="#000000" stroke-width="12" opacity="1" data-start="0" data-end="9999" data-layer="0" class=""></path><path d="M 325.1534729003906 27.326915740966797 C 324.5796407063802 29.770503997802734 322.78184000651044 36.77294031778971 321.7104797363281 41.98844528198242 C 320.6391194661458 47.20395024617513 319.22283935546875 55.848028818766274 318.7253112792969 58.61994552612305" fill="none" stroke="#000000" stroke-width="12" opacity="1" data-start="0" data-end="9999" data-layer="0" class=""></path></g>
</svg>
