<svg xmlns="http://www.w3.org/2000/svg" viewBox="0 0 400 100" width="400" height="100" role="img" >
<g data-start="0" data-end="9999" data-layer="0" class=""><path d="M 350.2566833496094 41.82803726196289 C 347.3337910970052 40.985355377197266 340.7308044433594 37.592665354410805 332.7193298339844 36.77194595336914 C 324.7078552246094 35.951226552327476 310.81519571940106 36.38426081339518 302.1878356933594 36.90372085571289 C 293.5604756673177 37.4231808980306 286.71985880533856 37.11442438761393 280.9551696777344 39.88870620727539 C 275.1904805501302 42.66298802693685 267.97278849283856 48.36763381958008 267.5997009277344 53.54941177368164 C 267.2266133626302 58.7311897277832 272.8957214355469 67.4525032043457 278.7166442871094 70.97937393188477 C 284.5375671386719 74.50624465942383 294.5264587402344 74.08875910441081 302.5252380371094 74.71063613891602 C 310.5240173339844 75.33251317342122 319.0210469563802 75.45688756306966 326.7093200683594 74.71063613891602 C 334.39759318033856 73.96438471476237 343.2805684407552 73.7599983215332 348.6548767089844 70.23312759399414 C 354.02918497721356 66.70625686645508 358.6468200683594 58.24750645955404 358.9551696777344 53.54941177368164 C 359.2635192871094 48.85131708780924 353.2357686360677 44.49644088745117 350.5049743652344 42.044559478759766 C 347.77418009440106 39.59267807006836 343.89283243815106 39.37252934773763 342.5704040527344 38.8381233215332" fill="#f184dd" stroke="#f675ff" stroke-width="3" opacity="1" data-start="0" data-end="9999" data-layer="0" class=""></path><path d="M 123.06845092773438 36.292606353759766 C 120.1455586751302 35.44992446899414 113.54257202148438 32.05723444620768 105.53109741210938 31.236515045166016 C 97.51962280273438 30.415795644124348 83.62696329752605 30.84882990519206 74.99960327148438 31.368289947509766 C 66.3722432454427 31.887749989827473 59.53162638346354 31.57899347941081 53.766937255859375 34.353275299072266 C 48.00224812825521 37.127557118733726 40.78455607096354 42.83220291137695 40.411468505859375 48.013980865478516 C 40.03838094075521 53.19575881958008 45.707489013671875 61.91707229614258 51.528411865234375 65.44394302368164 C 57.349334716796875 68.9708137512207 67.33822631835938 68.55332819620769 75.33700561523438 69.17520523071289 C 83.33578491210938 69.7970822652181 91.8328145345052 69.92145665486653 99.52108764648438 69.17520523071289 C 107.20936075846355 68.42895380655925 116.0923360188802 68.22456741333008 121.46664428710938 64.69769668579102 C 126.84095255533855 61.17082595825195 131.45858764648438 52.712075551350914 131.76693725585938 48.013980865478516 C 132.07528686523438 43.31588617960612 126.0475362141927 38.96100997924805 123.31674194335938 36.50912857055664 C 120.58594767252605 34.057247161865234 116.70460001627605 33.83709843953451 115.38217163085938 33.30269241333008" fill="#f184dd" stroke="#f675ff" stroke-width="3" opacity="1" data-start="0" data-end="9999" data-layer="0" class=""></path></g>
</svg>
