<svg xmlns="http://www.w3.org/2000/svg" viewBox="0 0 400 100" width="400" height="100" role="img" >
<g data-start="0" data-end="9999" data-layer="0" class="selected"><path d="M 318.2117614746094 17.255821228027344 C 315.2888692220052 16.41313934326172 308.6858825683594 13.02044932047526 300.6744079589844 12.199729919433594 C 292.6629333496094 11.379010518391928 278.77027384440106 11.812044779459635 270.1429138183594 12.331504821777344 C 261.5155537923177 12.850964864095053 254.67493693033853 12.542208353678385 248.91024780273438 15.316490173339844 C 243.14555867513022 18.0907719930013 235.92786661783853 23.79541778564453 235.55477905273438 28.977195739746094 C 235.18169148763022 34.158973693847656 240.85079956054688 42.880287170410156 246.67172241210938 46.40715789794922 C 252.49264526367188 49.93402862548828 262.4815368652344 49.51654307047526 270.4803161621094 50.13842010498047 C 278.4790954589844 50.76029713948568 286.9761250813802 50.88467152913412 294.6643981933594 50.13842010498047 C 302.35267130533856 49.39216868082682 311.2356465657552 49.187782287597656 316.6099548339844 45.660911560058594 C 321.98426310221356 42.13404083251953 326.6018981933594 33.67529042561849 326.9102478027344 28.977195739746094 C 327.2185974121094 24.2791010538737 321.1908467610677 19.924224853515625 318.4600524902344 17.47234344482422 C 315.72925821940106 15.020462036132812 311.84791056315106 14.800313313802084 310.5254821777344 14.265907287597656" fill="#f184dd" stroke="#f675ff" stroke-width="3" opacity="1" data-start="0" data-end="9999" data-layer="0" class="selected"></path><path d="M 91.02352905273438 11.720390319824219 C 88.1006368001302 10.877708435058594 81.49765014648438 7.485018412272136 73.48617553710938 6.664299011230469 C 65.47470092773438 5.843579610188802 51.58204142252604 6.276613871256511 42.954681396484375 6.796073913574219 C 34.32732137044271 7.315533955891927 27.486704508463543 7.00677744547526 21.722015380859375 9.781059265136719 C 15.957326253255207 12.555341084798178 8.739634195963541 18.259986877441406 8.366546630859375 23.44176483154297 C 7.993459065755208 28.62354278564453 13.662567138671875 37.34485626220703 19.483489990234375 40.871726989746094 C 25.304412841796875 44.398597717285156 35.293304443359375 43.98111216227213 43.292083740234375 44.602989196777344 C 51.290863037109375 45.224866231282554 59.78789265950521 45.34924062093099 67.47616577148438 44.602989196777344 C 75.16443888346355 43.856737772623696 84.0474141438802 43.65235137939453 89.42172241210938 40.12548065185547 C 94.79603068033855 36.598609924316406 99.41366577148438 28.139859517415363 99.72201538085938 23.44176483154297 C 100.03036499023438 18.743670145670574 94.0026143391927 14.3887939453125 91.27182006835938 11.936912536621094 C 88.54102579752605 9.485031127929688 84.65967814127605 9.264882405598959 83.33724975585938 8.730476379394531" fill="#f184dd" stroke="#f675ff" stroke-width="3" opacity="1" data-start="0" data-end="9999" data-layer="0" class="selected"></path></g>
</svg>
