<svg xmlns="http://www.w3.org/2000/svg" viewBox="0 0 500 200" width="500" height="200" role="img" >
<g data-start="0" data-end="9999" data-layer="0" class=""><g data-start="0" data-end="9999" data-layer="0" class=""><path d="M 2101.6614379882812 833.4989070892334 C 2099.0455932617188 834.0103715260824 2090.7892252604165 834.3792680104574 2085.9663696289062 836.5676937103271 C 2081.143513997396 838.7561194101969 2075.7471313476562 842.323751449585 2072.7243041992188 846.6294612884521 C 2069.7014770507812 850.9351711273193 2068.4737345377603 857.5070400238037 2067.8294067382812 862.4019527435303 C 2067.1850789388022 867.2968654632568 2067.9065551757812 871.463171005249 2068.8583374023438 875.9989376068115 C 2069.8101196289062 880.534704208374 2070.9341430664062 885.5663611094157 2073.5401000976562 889.6165523529053 C 2076.1460571289062 893.6667435963949 2079.9424031575522 898.111842473348 2084.4940795898438 900.300085067749 C 2089.0457560221353 902.48832766215 2095.5147501627603 902.8077551523844 2100.8501586914062 902.7460079193115 C 2106.1855672200522 902.6842606862386 2111.8804728190103 902.3164068857828 2116.5065307617188 899.9296016693115 C 2121.1325887044272 897.5427964528402 2125.759765625 892.9458573659261 2128.6065063476562 888.4251766204834 C 2131.4532470703125 883.9044958750407 2133.1927897135415 878.2164974212646 2133.5869750976562 872.8055171966553 C 2133.981160481771 867.3945369720459 2133.126993815104 861.2876796722412 2130.9716186523438 855.9592952728271 C 2128.8162434895835 850.6309108734131 2125.519490559896 844.5767625172933 2120.6547241210938 840.8352108001709 C 2115.7899576822915 837.0936590830485 2107.4791463216147 834.2084255218506 2101.7830200195312 833.5099849700928 C 2096.0868937174478 832.811544418335 2089.02880859375 836.1221370697021 2086.4779663085938 836.644567489624" fill="#424685" stroke="#000000" stroke-width="8" opacity="1" data-start="0" data-end="9999" data-layer="0" class=""></path><path d="M 1904.406982421875 829.4835720062256 C 1901.7911376953125 829.9950364430746 1893.5347696940105 830.3639329274496 1888.7119140625 832.5523586273193 C 1883.8890584309895 834.7407843271891 1878.49267578125 838.3084163665771 1875.4698486328125 842.6141262054443 C 1872.447021484375 846.9198360443115 1871.2192789713542 853.4917049407959 1870.574951171875 858.3866176605225 C 1869.9306233723958 863.281530380249 1870.652099609375 867.4478359222412 1871.6038818359375 871.9836025238037 C 1872.5556640625 876.5193691253662 1873.6796875 881.5510260264078 1876.28564453125 885.6012172698975 C 1878.8916015625 889.6514085133871 1882.6879475911458 894.0965073903402 1887.2396240234375 896.2847499847412 C 1891.7913004557292 898.4729925791422 1898.2602945963542 898.7924200693766 1903.595703125 898.7306728363037 C 1908.9311116536458 898.6689256032308 1914.6260172526042 898.301071802775 1919.2520751953125 895.9142665863037 C 1923.8781331380208 893.5274613698324 1928.5053100585938 888.9305222829183 1931.35205078125 884.4098415374756 C 1934.1987915039062 879.8891607920328 1935.9383341471355 874.2011623382568 1936.33251953125 868.7901821136475 C 1936.7267049153645 863.3792018890381 1935.872538248698 857.2723445892334 1933.7171630859375 851.9439601898193 C 1931.561787923177 846.6155757904053 1928.2650349934895 840.5614274342855 1923.4002685546875 836.8198757171631 C 1918.5355021158855 833.0783240000407 1910.2246907552083 830.1930904388428 1904.528564453125 829.494649887085 C 1898.8324381510417 828.7962093353271 1891.7743530273438 832.1068019866943 1889.2235107421875 832.6292324066162" fill="#424685" stroke="#000000" stroke-width="8" opacity="1" data-start="0" data-end="9999" data-layer="0" class=""></path></g><circle cx="1917.8551025390625" cy="850.3745269775391" r="8.67175269088967" fill="#ffffff" stroke="#000000" stroke-width="1" opacity="1" data-start="0" data-end="9999" data-layer="0" class=""></circle><circle cx="2119.0615234375" cy="854.3617401123047" r="8.67175269088967" fill="#ffffff" stroke="#000000" stroke-width="1" opacity="1" data-start="0" data-end="9999" data-layer="0" class=""></circle><path d="M 1923.56787109375 860.0981597900391 C 1922.6541748046875 860.6272481282552 1918.8795572916667 861.3837483723959 1918.085693359375 863.2726898193359 C 1917.2918294270833 865.161631266276 1919.4299723307292 868.7598775227865 1918.8046875 871.4318084716797 C 1918.1794026692708 874.1037394205729 1914.9955037434895 876.9655202229818 1914.333984375 879.3042755126953 C 1913.6724650065105 881.6430308024088 1913.4745076497395 884.1105499267578 1914.8355712890625 885.4643402099609 C 1916.1966349283855 886.8181304931641 1920.4817911783855 888.4242706298828 1922.5003662109375 887.4270172119141 C 1924.5189412434895 886.4297637939453 1925.8607991536458 882.1461690266927 1926.947021484375 879.4808197021484 C 1928.0332438151042 876.8154703776041 1928.7715861002605 874.2186635335287 1929.0177001953125 871.4349212646484 C 1929.2638142903645 868.6511789957682 1929.277811686198 864.8062896728516 1928.4237060546875 862.7783660888672 C 1927.569600423177 860.7504425048828 1924.648173014323 859.8525441487631 1923.89306640625 859.2673797607422" fill="#ffffff" stroke="#000000" stroke-width="1" opacity="1" data-start="0" data-end="9999" data-layer="0" class=""></path><path d="M 2121.8726806640625 865.4622955322266 C 2120.958984375 865.9913838704427 2117.184366861979 866.7478841145834 2116.3905029296875 868.6368255615234 C 2115.596638997396 870.5257670084635 2117.7347819010415 874.124013264974 2117.1094970703125 876.7959442138672 C 2116.4842122395835 879.4678751627604 2113.3003133138022 882.3296559651693 2112.6387939453125 884.6684112548828 C 2111.9772745768228 887.0071665445963 2111.7793172200522 889.4746856689453 2113.140380859375 890.8284759521484 C 2114.5014444986978 892.1822662353516 2118.7866007486978 893.7884063720703 2120.80517578125 892.7911529541016 C 2122.8237508138022 891.7938995361328 2124.1656087239585 887.5103047688802 2125.2518310546875 884.8449554443359 C 2126.3380533854165 882.1796061197916 2127.0763956705728 879.5827992757162 2127.322509765625 876.7990570068359 C 2127.5686238606772 874.0153147379557 2127.5826212565103 870.1704254150391 2126.728515625 868.1425018310547 C 2125.8744099934897 866.1145782470703 2122.9529825846353 865.2166798909506 2122.1978759765625 864.6315155029297" fill="#ffffff" stroke="#000000" stroke-width="1" opacity="1" data-start="0" data-end="9999" data-layer="0" class=""></path></g>
</svg>
