<svg xmlns="http://www.w3.org/2000/svg" viewBox="0 0 400 150" width="400" height="150" role="img" >
<g data-start="0" data-end="9999" data-layer="0" class=""><g data-start="0" data-end="9999" data-layer="0" class=""><path d="M 255.6737403869629 16.315595626831055 C 253.0578956604004 16.827060063680012 244.8015276590983 17.195956548055012 239.9786720275879 19.384382247924805 C 235.15581639607748 21.572807947794598 229.7594337463379 25.140439987182617 226.7366065979004 29.446149826049805 C 223.7137794494629 33.75185966491699 222.48603693644205 40.32372856140137 221.8417091369629 45.21864128112793 C 221.19738133748373 50.11355400085449 221.9188575744629 54.27985954284668 222.8706398010254 58.81562614440918 C 223.8224220275879 63.35139274597168 224.9464454650879 68.38304964701335 227.5524024963379 72.43324089050293 C 230.1583595275879 76.48343213399251 233.95470555623373 80.92853101094563 238.5063819885254 83.11677360534668 C 243.05805842081705 85.30501619974773 249.52705256144205 85.6244436899821 254.8624610900879 85.56269645690918 C 260.1978696187337 85.50094922383626 265.8927752176921 85.13309542338054 270.5188331604004 82.74629020690918 C 275.1448911031087 80.35948499043782 279.77206802368164 75.76254590352376 282.6188087463379 71.24186515808105 C 285.46554946899414 66.72118441263835 287.2050921122233 61.033185958862305 287.5992774963379 55.62220573425293 C 287.99346288045246 50.211225509643555 287.1392962137858 44.10436820983887 284.9839210510254 38.775983810424805 C 282.82854588826496 33.44759941101074 279.53179295857746 27.39345105489095 274.6670265197754 23.651899337768555 C 269.8022600809733 19.91034762064616 261.4914487202962 17.025114059448242 255.7953224182129 16.32667350769043 C 250.09919611612955 15.628232955932617 243.04111099243164 18.938825607299805 240.4902687072754 19.46125602722168" fill="#424685" stroke="#000000" stroke-width="8" opacity="1" data-start="0" data-end="9999" data-layer="0" class=""></path><path d="M 58.41928482055664 12.300260543823242 C 55.80344009399414 12.811724980672201 47.547072092692055 13.180621465047201 42.72421646118164 15.369047164916992 C 37.901360829671226 17.557472864786785 32.50497817993164 21.125104904174805 29.48215103149414 25.430814743041992 C 26.45932388305664 29.73652458190918 25.23158137003581 36.308393478393555 24.58725357055664 41.20330619812012 C 23.942925771077473 46.09821891784668 24.66440200805664 50.26452445983887 25.61618423461914 54.80029106140137 C 26.56796646118164 59.33605766296387 27.69198989868164 64.36771456400554 30.29794692993164 68.41790580749512 C 32.90390396118164 72.4680970509847 36.700249989827476 76.91319592793782 41.25192642211914 79.10143852233887 C 45.803602854410805 81.28968111673991 52.272596995035805 81.60910860697429 57.60800552368164 81.54736137390137 C 62.943414052327476 81.48561414082845 68.63831965128581 81.11776034037273 73.26437759399414 78.73095512390137 C 77.89043553670247 76.34414990743001 82.51761245727539 71.74721082051595 85.36435317993164 67.22653007507324 C 88.21109390258789 62.70584932963053 89.95063654581706 57.01785087585449 90.34482192993164 51.60687065124512 C 90.73900731404622 46.19589042663574 89.88484064737956 40.089033126831055 87.72946548461914 34.76064872741699 C 85.57409032185872 29.43226432800293 82.27733739217122 23.378115971883137 77.41257095336914 19.636564254760742 C 72.54780451456706 15.895012537638346 64.23699315388997 13.00977897644043 58.54086685180664 12.311338424682617 C 52.844740549723305 11.612897872924805 45.78665542602539 14.923490524291992 43.23581314086914 15.445920944213867" fill="#424685" stroke="#000000" stroke-width="8" opacity="1" data-start="0" data-end="9999" data-layer="0" class=""></path></g><circle cx="71.86740493774414" cy="33.19121551513672" r="8.67175269088967" fill="#ffffff" stroke="#000000" stroke-width="1" opacity="1" data-start="0" data-end="9999" data-layer="0" class=""></circle><circle cx="273.07382583618164" cy="37.178428649902344" r="8.67175269088967" fill="#ffffff" stroke="#000000" stroke-width="1" opacity="1" data-start="0" data-end="9999" data-layer="0" class=""></circle><path d="M 77.58017349243164 42.91484832763672 C 76.66647720336914 43.44393666585287 72.89185969034831 44.20043690999349 72.09799575805664 46.089378356933594 C 71.30413182576497 47.978319803873696 73.44227472941081 51.57656606038412 72.81698989868164 54.248497009277344 C 72.19170506795247 56.92042795817057 69.00780614217122 59.78220876057943 68.34628677368164 62.12096405029297 C 67.68476740519206 64.45971934000652 67.48681004842122 66.92723846435547 68.84787368774414 68.2810287475586 C 70.20893732706706 69.63481903076172 74.49409357706706 71.24095916748047 76.51266860961914 70.24370574951172 C 78.53124364217122 69.24645233154297 79.87310155232747 64.96285756429036 80.95932388305664 62.297508239746094 C 82.04554621378581 59.63215891520182 82.78388849894206 57.035352071126304 83.03000259399414 54.251609802246094 C 83.27611668904622 51.46786753336588 83.29011408487956 47.62297821044922 82.43600845336914 45.595054626464844 C 81.58190282185872 43.56713104248047 78.66047541300456 42.66923268636068 77.90536880493164 42.084068298339844" fill="#ffffff" stroke="#000000" stroke-width="1" opacity="1" data-start="0" data-end="9999" data-layer="0" class=""></path><path d="M 275.88498306274414 48.27898406982422 C 274.97128677368164 48.80807240804037 271.1966692606608 49.56457265218099 270.40280532836914 51.453514099121094 C 269.60894139607746 53.342455546061196 271.7470842997233 56.94070180257162 271.12179946899414 59.612632751464844 C 270.49651463826496 62.28456370035807 267.3126157124837 65.14634450276692 266.65109634399414 67.48509979248047 C 265.9895769755046 69.82385508219402 265.7916196187337 72.29137420654297 267.15268325805664 73.6451644897461 C 268.5137468973796 74.99895477294922 272.7989031473796 76.60509490966797 274.81747817993164 75.60784149169922 C 276.8360532124837 74.61058807373047 278.17791112263996 70.32699330647786 279.26413345336914 67.6616439819336 C 280.3503557840983 64.99629465738933 281.0886980692546 62.399487813313804 281.33481216430664 59.615745544433594 C 281.5809262593587 56.83200327555338 281.5949236551921 52.98711395263672 280.74081802368164 50.959190368652344 C 279.8867123921712 48.93126678466797 276.9652849833171 48.03336842854818 276.21017837524414 47.448204040527344" fill="#ffffff" stroke="#000000" stroke-width="1" opacity="1" data-start="0" data-end="9999" data-layer="0" class=""></path></g>
</svg>
