<svg xmlns="http://www.w3.org/2000/svg" viewBox="0 0 380 140" width="380" height="140" role="img" >
<g data-start="0" data-end="9999" data-layer="0" class=""><path d="M 56.214698791503906 34.69599151611328 C 52.61028798421224 37.45376332600912 34.30859120686849 51.41083526611328 34.588233947753906 51.24262237548828 C 34.86787668863932 51.07440948486328 48.53606923421224 37.76410675048828 57.892555236816406 33.68671417236328 C 67.24904123942058 29.60932159423828 80.2969741821289 28.0011469523112 90.7271499633789 26.77826690673828 C 101.1573257446289 25.555386861165363 110.23699696858723 23.57825469970703 120.4736099243164 26.34943389892578 C 130.71022288004556 29.12061309814453 151.92079416910806 43.34927113850912 152.1468276977539 43.40534210205078 C 152.37286122639975 43.461413065592446 126.88264719645183 29.472440083821613 121.8298110961914 26.68585968017578" fill="none" stroke="#000000" stroke-width="15" opacity="1" data-start="0" data-end="9999" data-layer="0" class=""></path><path d="M 48.043678283691406 34.94171905517578 C 45.98634592692057 34.116137186686196 39.73762766520182 32.324816385904946 35.699684143066406 29.98822784423828 C 31.66174062093099 27.651639302571613 25.79662831624349 22.433194478352863 23.816017150878906 20.92218780517578" fill="none" stroke="#000000" stroke-width="8" opacity="1" data-start="0" data-end="9999" data-layer="0" class=""></path><path d="M 65.6248550415039 28.88300323486328 C 63.17372385660807 27.6494623819987 55.25494130452474 24.525235493977863 50.918067932128906 21.48175811767578 C 46.58119455973307 18.4382807413737 41.489356994628906 12.432075500488281 39.603614807128906 10.622138977050781" fill="none" stroke="#000000" stroke-width="8" opacity="1" data-start="0" data-end="9999" data-layer="0" class=""></path><path d="M 37.069435119628906 45.97528839111328 C 35.09356435139974 45.312609354654946 29.456153869628906 44.159472147623696 25.214210510253906 41.99921417236328 C 20.972267150878906 39.83895619710287 13.88384755452474 34.51131947835287 11.617774963378906 33.01374053955078" fill="none" stroke="#000000" stroke-width="8" opacity="1" data-start="0" data-end="9999" data-layer="0" class=""></path><path d="M 358.9932632446289 43.33039093017578 C 360.1698176066081 42.05575307210287 363.40535227457684 39.31033070882162 366.0525894165039 35.68256378173828 C 368.69982655843097 32.054796854654946 373.40600331624347 23.9169184366862 374.8766860961914 21.56378936767578" fill="none" stroke="#000000" stroke-width="8" opacity="1" data-start="0" data-end="9999" data-layer="0" class=""></path><path d="M 371.4654312133789 50.35956573486328 C 372.6419855753581 49.08492787679037 375.87752024332684 46.33950551350912 378.5247573852539 42.71173858642578 C 381.17199452718097 39.083971659342446 385.87817128499347 30.9460932413737 387.3488540649414 28.59296417236328" fill="none" stroke="#000000" stroke-width="8" opacity="1" data-start="0" data-end="9999" data-layer="0" class=""></path><path d="M 345.3776626586914 32.95111846923828 C 346.5542170206706 31.676480611165363 349.78975168863934 28.931058247884113 352.4369888305664 25.30329132080078 C 355.08422597249347 21.67552439371745 359.79040273030597 13.537645975748697 361.2610855102539 11.184516906738281" fill="none" stroke="#000000" stroke-width="8" opacity="1" data-start="0" data-end="9999" data-layer="0" class=""></path><path d="M 282.7923355102539 29.68512725830078 C 277.5156428019206 31.32154083251953 251.279416402181 39.56258900960287 251.1321792602539 39.50360870361328 C 250.9849421183268 39.444628397623696 272.2063980102539 31.68488311767578 281.9089126586914 29.33124542236328 C 291.6114273071289 26.97760772705078 300.9684015909831 25.0858637491862 309.3472671508789 25.38178253173828 C 317.7261327107747 25.677701314290363 322.4115982055664 26.434537251790363 332.1821060180664 31.10675811767578 C 341.9526138305664 35.778978983561196 364.9821955362956 51.785204569498696 367.9703140258789 53.41510772705078 C 370.9584325154622 55.04501088460287 353.08739980061847 42.97433217366537 350.1108169555664 40.88617706298828" fill="none" stroke="#000000" stroke-width="15" opacity="1" data-start="0" data-end="9999" data-layer="0" class=""></path><path d="M 55.751197814941406 108.28217315673828 C 52.16546376546224 105.16791534423828 34.219642639160156 89.50710805257161 34.236793518066406 89.59662628173828 C 34.253944396972656 89.68614451090495 47.415199279785156 103.80609893798828 55.854103088378906 108.81928253173828 C 64.29300689697266 113.83246612548828 75.07645416259766 117.9377924601237 84.8702163696289 119.67572784423828 C 94.66397857666016 121.41366322835286 103.7458267211914 121.9723383585612 114.6166763305664 119.24689483642578 C 125.4875259399414 116.52145131429036 149.86928049723306 103.26699574788411 150.0953140258789 103.32306671142578 C 150.32134755452475 103.37913767496745 121.65995025634766 116.87327829996745 115.9728775024414 119.58332061767578" fill="none" stroke="#000000" stroke-width="5" opacity="1" data-start="0" data-end="9999" data-layer="0" class=""></path><path d="M 267.8168716430664 110.82587432861328 C 264.2311375935872 107.71161651611328 246.28531646728516 92.05080922444661 246.3024673461914 92.14032745361328 C 246.31961822509766 92.22984568277995 259.48087310791016 106.34980010986328 267.9197769165039 111.36298370361328 C 276.35868072509766 116.37616729736328 287.14212799072266 120.4814936319987 296.9358901977539 122.21942901611328 C 306.72965240478516 123.95736440022786 315.8115005493164 124.5160395304362 326.6823501586914 121.79059600830078 C 337.5531997680664 119.06515248616536 361.9349543253581 105.81069691975911 362.1609878540039 105.86676788330078 C 362.3870213826497 105.92283884684245 333.72562408447266 119.41697947184245 328.0385513305664 122.12702178955078" fill="none" stroke="#000000" stroke-width="5" opacity="1" data-start="0" data-end="9999" data-layer="0" class=""></path></g>
</svg>
