<svg xmlns="http://www.w3.org/2000/svg" viewBox="0 0 300 100" width="300" height="100" role="img" >
<g data-start="0" data-end="9999" data-layer="0" class=""><path d="M 223.30968475341797 48.8171010017395 C 225.6430180867513 47.317098458607994 231.82454681396484 42.59981838862101 237.30968475341797 39.81708574295044 C 242.7948226928711 37.03435309727987 250.6542485555013 33.99942064285278 256.2205123901367 32.120705127716064 C 261.78677622477215 30.241989612579346 264.9297612508138 29.423510710398357 270.70726776123047 28.544792652130127 C 276.48477427164715 27.666074593861897 284.45181528727215 27.131129423777264 290.8855514526367 26.84839677810669 C 297.3192876180013 26.565664132436115 303.5976282755534 26.494980335235596 309.30968475341797 26.84839677810669 C 315.02174123128253 27.201813220977783 320.1578903198242 27.974113941192627 325.1578903198242 28.968895435333252 C 330.1578903198242 29.963676929473877 334.61771901448566 31.175720691680908 339.30968475341797 32.81708574295044 C 344.0016504923503 34.45845079421997 350.97635142008465 37.81708574295044 353.30968475341797 38.81708574295044 C 355.6430180867513 39.81708574295044 353.30968475341797 38.81708574295044 353.30968475341797 38.81708574295044" fill="none" stroke="#000000" stroke-width="7" opacity="1" data-start="0" data-end="9999" data-layer="0" class=""></path><path d="M 136.36925506591797 57.36676836013794 C 135.09838104248047 55.049243132273354 132.0444564819336 47.34460496902466 128.74401092529297 43.46161699295044 C 125.44356536865234 39.57862901687622 120.78289540608723 37.27693223953247 116.56658172607422 34.06884050369263 C 112.3502680460612 30.860748767852783 108.29100290934245 26.868502775828045 103.44612884521484 24.213066577911377 C 98.60125478108723 21.55763037999471 92.99401601155598 19.386386076609295 87.4973373413086 18.136223316192627 C 82.0006586710612 16.88606055577596 76.1455307006836 16.870219389597576 70.46605682373047 16.712090015411377 C 64.78658294677734 16.553960641225178 58.59997812906901 16.595416227976482 53.420494079589844 17.18744707107544 C 48.24101003011068 17.779477914174397 44.06435902913412 18.73439073562622 39.38915252685547 20.264275074005127 C 34.71394602457682 21.794159412384033 27.705904642740887 25.34967343012492 25.36925506591797 26.366753101348877 C 23.03260548909505 27.383832772572834 25.36925506591797 26.366753101348877 25.36925506591797 26.366753101348877" fill="none" stroke="#000000" stroke-width="8" opacity="1" data-start="0" data-end="9999" data-layer="0" class=""></path></g>
</svg>
