<svg xmlns="http://www.w3.org/2000/svg" viewBox="0 0 340 140" width="340" height="140" role="img" >
<g data-start="0" data-end="9999" data-layer="0" class=""><path d="M 21.1817626953125 17.497074127197266 C 20.14129638671875 27.387226104736328 8.449381510416668 63.49389521280924 14.93896484375 76.83798599243164 C 21.428548177083332 90.18207677205403 45.777587890625 95.79702123006184 60.1192626953125 97.56161880493164 C 74.4609375 99.32621637980144 92.84726969401042 91.45881525675456 100.989013671875 87.42557144165039 C 109.13075764973958 83.39232762654622 107.97212727864583 83.68678156534831 108.9697265625 73.36215591430664 C 109.96732584635417 63.037530263264976 109.63484700520833 36.11878331502279 106.974609375 25.47781753540039 C 104.31437174479167 14.836851755777994 99.65891520182292 12.17660395304362 93.00830078125 9.516361236572266 C 86.35768636067708 6.856118520100912 77.04683430989583 9.516361236572266 67.0709228515625 9.516361236572266 C 57.095011393229164 9.516361236572266 38.80584716796875 9.516361236572266 33.15283203125 9.516361236572266 C 27.49981689453125 9.516361236572266 33.15283203125 9.516361236572266 33.15283203125 9.516361236572266" fill="#ffffff" stroke="#ffffff" stroke-width="1" opacity="1" data-start="0" data-end="9999" data-layer="0" class=""></path><path d="M 231.9224853515625 18.759403228759766 C 230.88201904296875 28.649555206298828 219.19010416666666 64.75622431437175 225.6796875 78.10031509399414 C 232.16927083333334 91.44440587361653 256.518310546875 97.05935033162434 270.8599853515625 98.82394790649414 C 285.20166015625 100.58854548136394 303.58799235026044 92.72114435831706 311.729736328125 88.68790054321289 C 319.87148030598956 84.65465672810872 318.7128499348958 84.94911066691081 319.71044921875 74.62448501586914 C 320.7080485026042 64.29985936482747 320.3755696614583 37.38111241658529 317.71533203125 26.74014663696289 C 315.0550944010417 16.099180857340492 310.39963785807294 13.43893305460612 303.7490234375 10.778690338134766 C 297.09840901692706 8.118447621663412 287.7875569661458 10.778690338134766 277.8116455078125 10.778690338134766 C 267.8357340494792 10.778690338134766 249.54656982421875 10.778690338134766 243.8935546875 10.778690338134766 C 238.24053955078125 10.778690338134766 243.8935546875 10.778690338134766 243.8935546875 10.778690338134766" fill="#ffffff" stroke="#ffffff" stroke-width="1" opacity="1" data-start="0" data-end="9999" data-layer="0" class=""></path></g>
  </svg>
