<svg xmlns="http://www.w3.org/2000/svg" viewBox="0 0 340 140" width="340" height="140" role="img" >
<g data-start="0" data-end="9999" data-layer="0" class=""><path d="M 74.2087287902832 21.25465202331543 C 67.06120681762695 22.483055750528973 38.12675857543945 15.265694300333658 31.323596954345703 28.62507438659668 C 24.520435333251953 41.9844544728597 23.03864415486654 88.87110201517741 33.3897590637207 101.41093254089355 C 43.74087397257487 113.9507630666097 83.02539952596028 115.85973421732585 93.4302864074707 103.86405754089355 C 103.83517328898112 91.86838086446126 102.98194249471028 43.135836919148765 95.8190803527832 29.436872482299805 C 88.65621821085612 15.737908045450846 58.01410802205404 22.964704513549805 50.4531135559082 21.670270919799805" fill="#424685" stroke="#000000" stroke-width="8" opacity="1" data-start="0" data-end="9999" data-layer="0" class=""></path><circle cx="53.6326789855957" cy="45.022315979003906" r="15.056824345335585" fill="#ffffff" stroke="#000000" stroke-width="1" opacity="1" data-start="0" data-end="9999" data-layer="0" class=""></circle><path d="M 79.9620246887207 53.526222229003906 C 79.12948481241862 56.286328633626304 78.73135248819987 67.7530746459961 74.9667854309082 70.08686065673828 C 71.20221837361653 72.42064666748047 57.9297981262207 66.28166961669922 57.3746223449707 67.52893829345703 C 56.8194465637207 68.77620697021484 71.56008084615071 74.24040222167969 71.6357307434082 77.57047271728516 C 71.7113806406657 80.90054321289062 57.444929122924805 86.79823303222656 57.828521728515625 87.50936126708984 C 58.212114334106445 88.22048950195312 72.08190600077312 79.73678080240886 73.93728637695312 81.83724212646484 C 75.79266675313313 83.93770345052083 68.44032351175944 99.34839375813802 68.9608039855957 100.11212921142578 C 69.48128445943196 100.87586466471355 73.96161778767903 87.09867095947266 77.0601692199707 86.4196548461914 C 80.15872065226237 85.74063873291016 86.60503005981445 97.43759409586589 87.5521125793457 96.03803253173828 C 88.49919509887695 94.63847096761067 81.36550776163737 82.77017974853516 82.7426643371582 78.02228546142578 C 84.11982091267903 73.2743911743164 96.14313634236653 68.55425771077473 95.8150520324707 67.55066680908203 C 95.48696772257487 66.54707590738933 83.28097407023112 71.25906117757161 80.7741584777832 72.00074005126953" fill="#ffffff" stroke="#000000" stroke-width="1" opacity="1" data-start="0" data-end="9999" data-layer="0" class=""></path><path d="M 284.1945686340332 21.73145866394043 C 277.04704666137695 22.959862391153973 248.11259841918945 15.742500940958658 241.3094367980957 29.10188102722168 C 234.50627517700195 42.4612611134847 233.02448399861655 89.34790865580241 243.3755989074707 101.88773918151855 C 253.72671381632486 114.4275697072347 293.01123936971027 116.33654085795085 303.4161262512207 104.34086418151855 C 313.82101313273114 92.34518750508626 312.96778233846027 43.612643559773765 305.8049201965332 29.913679122924805 C 298.64205805460614 16.214714686075844 267.999947865804 23.441511154174805 260.4389533996582 22.147077560424805" fill="#424685" stroke="#000000" stroke-width="8" opacity="1" data-start="0" data-end="9999" data-layer="0" class=""></path><circle cx="263.6185188293457" cy="45.499122619628906" r="15.056824345335585" fill="#ffffff" stroke="#000000" stroke-width="1" opacity="1" data-start="0" data-end="9999" data-layer="0" class=""></circle><path d="M 289.9478645324707 54.003028869628906 C 289.11532465616864 56.763135274251304 288.7171923319499 68.2298812866211 284.9526252746582 70.56366729736328 C 281.1880582173665 72.89745330810547 267.9156379699707 66.75847625732422 267.3604621887207 68.00574493408203 C 266.8052864074707 69.25301361083984 281.5459206899007 74.71720886230469 281.6215705871582 78.04727935791016 C 281.6972204844157 81.37734985351562 267.4307689666748 87.27503967285156 267.8143615722656 87.98616790771484 C 268.19795417785645 88.69729614257812 282.06774584452313 80.21358744303386 283.9231262207031 82.31404876708984 C 285.7785065968831 84.41451009114583 278.42616335550946 99.82520039876302 278.9466438293457 100.58893585205078 C 279.46712430318195 101.35267130533855 283.947457631429 87.57547760009766 287.0460090637207 86.8964614868164 C 290.1445604960124 86.21744537353516 296.59086990356445 97.91440073649089 297.5379524230957 96.51483917236328 C 298.48503494262695 95.11527760823567 291.3513476053874 83.24698638916016 292.7285041809082 78.49909210205078 C 294.105660756429 73.7511978149414 306.1289761861165 69.03106435139973 305.8008918762207 68.02747344970703 C 305.4728075663249 67.02388254801433 293.26681391398114 71.73586781819661 290.7599983215332 72.47754669189453" fill="#ffffff" stroke="#000000" stroke-width="1" opacity="1" data-start="0" data-end="9999" data-layer="0" class=""></path></g>
</svg>
