<svg xmlns="http://www.w3.org/2000/svg" viewBox="0 0 350 100" width="350" height="100" role="img" >
<g data-start="0" data-end="9999" data-layer="0" class=""><path d="M 20.00323486328125 23.671359062194824 C 22.004781087239582 26.218806266784668 26.917622884114582 34.588987032572426 32.01251220703125 38.95604228973389 C 37.107401529947914 43.32309754689535 43.112162272135414 47.69016043345133 50.57257080078125 49.873690605163574 C 58.032979329427086 52.057220776875816 68.04083251953125 51.6933012008667 76.77496337890625 52.057223320007324 C 85.50909423828125 52.42114543914795 94.97108968098958 54.604673067728676 102.97735595703125 52.057223320007324 C 110.98362223307292 49.50977357228597 121.17336018880208 39.31997458140055 124.81256103515625 36.7725248336792 C 128.4517618815104 34.22507508595785 124.81256103515625 36.7725248336792 124.81256103515625 36.7725248336792" fill="none" stroke="#000000" stroke-width="8" opacity="1" data-start="0" data-end="9999" data-layer="0" class=""></path><path d="M 209.44158935546875 33.444064140319824 C 212.8988240559896 36.719358126322426 222.1787312825521 48.54680919647217 230.18499755859375 53.09582805633545 C 238.1912638346354 57.64484691619873 248.19915771484375 59.10053030649821 257.47918701171875 60.73817729949951 C 266.75921630859375 62.375824292500816 276.76711018880206 63.649551709493004 285.86517333984375 62.92171001434326 C 294.96323649088544 62.19386831919352 304.97108968098956 60.37426280975342 312.06756591796875 56.371127128601074 C 319.16404215494794 52.36799144744873 325.71461995442706 41.814267794291176 328.44403076171875 38.9028959274292 C 331.17344156901044 35.99152406056722 328.44403076171875 38.9028959274292 328.44403076171875 38.9028959274292" fill="none" stroke="#000000" stroke-width="8" opacity="1" data-start="0" data-end="9999" data-layer="0" class=""></path><path d="M 5.28167724609375 35.627596855163574 C 8.16070556640625 34.17191092173258 19.67681884765625 28.349167188008625 22.55584716796875 26.893481254577637" fill="none" stroke="#000000" stroke-width="8" opacity="1" data-start="0" data-end="9999" data-layer="0" class=""></path><path d="M 16.19915771484375 52.004061698913574 C 18.71429443359375 49.85285472869873 28.77484130859375 41.248026847839355 31.28997802734375 39.09681987762451" fill="none" stroke="#000000" stroke-width="8" opacity="1" data-start="0" data-end="9999" data-layer="0" class=""></path><path d="M 31.81866455078125 64.01347637176514 C 33.867167154947914 61.16674836476644 42.061177571614586 49.779836336771645 44.10968017578125 46.93310832977295" fill="none" stroke="#000000" stroke-width="8" opacity="1" data-start="0" data-end="9999" data-layer="0" class=""></path><path d="M 312.80572509765625 73.2230863571167 C 311.98402913411456 70.9634199142456 308.69724527994794 61.92475414276123 307.87554931640625 59.66508769989014" fill="none" stroke="#000000" stroke-width="8" opacity="1" data-start="0" data-end="9999" data-layer="0" class=""></path><path d="M 332.28240966796875 62.49937725067139 C 330.43359375 60.54784679412842 323.038330078125 52.74172496795654 321.18951416015625 50.790194511413574" fill="none" stroke="#000000" stroke-width="8" opacity="1" data-start="0" data-end="9999" data-layer="0" class=""></path><path d="M 345.91204833984375 48.72877788543701 C 343.44696044921875 46.67453543345133 333.58660888671875 38.45756562550863 331.12152099609375 36.40332317352295" fill="none" stroke="#000000" stroke-width="7" opacity="1" data-start="0" data-end="9999" data-layer="0" class=""></path></g>
</svg>
