<svg xmlns="http://www.w3.org/2000/svg" viewBox="0 0 570 750" width="570" height="750" role="img" >
  <g data-start="0" data-end="9999" data-layer="0" class=""><path d="M 59.63228172108256 288.72439797783926 C 61.45105645580369 296.5508360524164 69.34330849879223 318.7473062997683 70.5449301294093 335.68302642530205 C 71.74655176002636 352.6187465508358 69.47146606823962 375.393773249161 66.84201150478498 390.3387187310416 C 64.21255694133033 405.2836642129222 58.39035323092526 413.4801462365089 54.76820274868146 425.3526993165857 C 51.146052266437664 437.2252523966625 46.51772159672074 448.5653680517322 45.1091086113222 461.5740372115023 C 43.70049562592366 474.58270637127237 43.7913631135286 490.15567193846437 46.31652483629023 503.4047142752062 C 48.84168655905186 516.653756611948 52.61334518547911 527.1121770517236 60.260078947892 541.0682912319533 C 67.90681271030489 555.0244054121829 78.42248069829407 572.0170465953358 92.19692741076756 587.141399356584 C 105.97137412324105 602.2657521178321 126.496762599076 619.3835778958676 142.90675922273294 631.8144077994423 C 159.3167558463899 644.245237703017 173.07934088553029 653.1990920571288 190.6569071527092 661.7263787780325 C 208.23447341988813 670.2536654989362 231.7804841425358 678.5056588178614 248.37215682580654 682.9781281248643 C 264.96382950907724 687.4505974318671 275.50322084373335 688.2343727786007 290.20694325233353 688.5611946200495 C 304.9106656609337 688.8880164614983 320.2545256588944 688.159259689596 336.59449127740777 684.9390591735569 C 352.93445689592113 681.7188586575178 371.4279544767267 676.858547981872 388.2467369634137 669.2399915238149 C 405.0655194501007 661.6214350657577 422.4553020742108 652.1058995179392 437.5071861975298 639.2277204252143 C 452.5590703208488 626.3495413324895 467.28917709720264 610.3109971088096 478.5580417033275 591.9709169674654 C 489.82690630945234 573.6308368261213 500.2258723209797 549.6281173127087 505.1203738342788 529.1872395771492 C 510.01487534757786 508.7463618415896 507.72382456489316 488.6437087235525 507.92505078312183 469.32565055410805 C 508.1262770013505 450.0075923846636 503.9529834307179 420.70225864444257 506.3277311436507 413.2788905604825 C 508.70247885658347 405.8555224765225 514.7542371375002 428.9515553210718 522.1735370607187 424.7854420503479 C 529.5928369839371 420.619328779624 544.8047017287724 403.9831780001486 550.843530682961 388.2822109361391 C 556.8823596371496 372.5812438721296 559.5615437198576 344.33765191208875 558.4065107858503 330.57963966629086 C 557.251477851843 316.821627420493 550.9873876094201 310.73774574885886 543.9133330789173 305.7341374613516 C 536.8392785484144 300.7305291738444 521.6559340918282 299.3502251323365 515.962183602833 300.55798994124757 C 510.26843311383783 301.76575475015864 509.65141740274447 317.20911529555934 509.75083014494635 312.9807263148182 C 509.8502428871482 308.752337334077 514.7656104941333 295.49756757481873 516.5586600560441 275.18765605680073 C 518.351709617955 254.8777445387827 523.3978279244549 216.8310070186616 520.5091275164114 191.12125720671008 C 517.6204271083678 165.41150739475856 513.4625767499866 142.66197170516045 499.226457607783 120.92915718509153 C 484.9903384655793 99.1963426650226 463.3915863842684 76.79539582821474 435.0924126631894 60.72437008629652 C 406.7932389421104 44.6533443443783 361.69930065899194 30.741123510596548 329.431415281309 24.503002733582207 C 297.16352990362606 18.264881956567866 267.94425168086786 19.472278543003938 241.48510039709163 23.295645424210477 C 215.0259491133154 27.119012305417016 193.17504196323617 36.50407895898298 170.67650757865158 47.44320402082144 C 148.177973194067 58.3823290826599 122.11125992283182 73.98820269245759 106.49389408958405 88.93039579524122 C 90.87652825633627 103.87258889802486 84.00725329094757 121.67439160590574 76.97231257916496 137.09636263752327 C 69.93737186738235 152.5183336691408 67.22767299637447 168.0310175349235 64.28424981888838 181.46222198494638 C 61.340826641402295 194.89342643496926 60.39293361693141 203.77137832314497 59.31177351424844 217.68358933766058 C 58.23061341156548 231.59580035217618 57.85272636219148 253.39250200148558 57.79728920279058 264.9354880720401 C 57.74185204338968 276.47847414259456 61.94899496368703 284.7883990117493 58.97915055784301 286.9415057609875 C 56.009306151999 289.0946125102258 46.991728580868084 273.9974337586421 39.97822276772649 277.85412856746944 C 32.9647169545849 281.7108233762968 19.196608288224223 293.7790734392469 16.898115678993463 310.08167461395146 C 14.599623069762705 326.38427578865605 19.78673459597576 360.06808546189893 26.187267112341942 375.66973561569694 C 32.587799628708126 391.27138576949494 48.25369084949974 402.8491755849422 55.301310777190565 403.6915755367394 C 62.34893070488139 404.53397548853656 66.27770736160419 384.55204202819 68.4729866784869 380.7241353264801" fill="#fff0b8" stroke="#000000" stroke-width="12" opacity="1" data-start="0" data-end="9999" data-layer="0" class=""></path><path d="M 513.5901184082031 365.7648620605469 C 517.3873697916666 364.82390848795575 533.0013732910156 366.44341532389325 536.3736267089844 360.119140625 C 539.7458801269531 353.79486592610675 537.49609375 330.4964955647786 533.8236389160156 327.8192138671875 C 530.1511840820312 325.1419321695964 517.7566223144531 333.72833251953125 514.3388977050781 344.0554504394531 C 510.9211730957031 354.382568359375 513.487559000651 382.1608428955078 513.3172912597656 389.78192138671875" fill="#fdf2ba" stroke="#000000" stroke-width="5" opacity="1" data-start="0" data-end="9999" data-layer="0" class=""></path><path d="M 56.1527099609375 348.2961730957031 C 53.2024892171224 347.4633331298828 42.19568888346354 347.0923563639323 38.451385498046875 343.29913330078125 C 34.70708211263021 339.5059102376302 32.85735575358073 331.3665720621745 33.6868896484375 325.5368347167969 C 34.51642354329427 319.70709737141925 39.373433430989586 306.83942159016925 43.4285888671875 308.3207092285156 C 47.483744303385414 309.801996866862 56.70281473795573 324.21764119466144 58.017822265625 334.424560546875 C 59.33282979329427 344.63147989908856 52.43516540527344 363.70594787597656 51.318634033203125 369.5622253417969" fill="#fdf2ba" stroke="#000000" stroke-width="5" opacity="1" data-start="0" data-end="9999" data-layer="0" class=""></path></g>
</svg>
