<svg xmlns="http://www.w3.org/2000/svg" viewBox="0 0 570 750" width="570" height="750" role="img" >
<g data-start="0" data-end="9999" data-layer="1" class=""><path d="M 338.77305603027344 337.70661544799805C 338.7831293741863 346.96819750467944 335.906005859375 381.6727193196614 338.83349609375 393.27610778808594C 341.760986328125 404.8794962565105 347.650011698405 403.18071683247877 356.33799743652344 407.3269462585449C 365.02598317464185 411.4731756846111 379.6415252685547 416.8732007344563 390.96141052246094 418.1534843444824C 402.2812957763672 419.43376795450854 414.4648691813152 417.58538945515943 424.25730895996094 415.0086479187012C 434.0497487386067 412.4319063822429 445.54490661621094 413.7687797546387 449.71604919433594 402.6930351257324C 453.88719177246094 391.6172904968262 453.59509785970045 360.651648203532 449.28416442871094 348.5541801452637C 444.97323099772143 336.45671208699537 432.4441579182942 334.2655804951985 423.85044860839844 330.10822677612305C 415.2567392985027 325.9508730570476 407.6978200276692 323.61005783081055 397.72190856933594 323.61005783081055C 387.7459971110027 323.61005783081055 373.8063710530598 327.80012130737305 363.99497985839844 330.10822677612305C 354.18358866373705 332.41633224487305 343.0437978108723 336.23361333211255 338.8535614013672 337.45869064331055Z M 126.10752868652344 348.70295333862305C 126.05678812662768 355.5140240987141 120.08325703938795 378.86450831095385 125.80308532714844 389.5693778991699C 131.52291361490893 400.274247487386 150.05396779378248 408.20667584737134 160.42649841308594 412.9321708679199C 170.7990290323894 417.6576658884685 177.59771728515625 418.73194885253906 188.03826904296875 417.92234802246094C 198.47882080078125 417.1127471923828 215.0213597615559 411.180025100708 223.06980895996094 408.0745658874512C 231.11825815836596 404.96910667419434 233.9017995198567 410.4939384460449 236.32896423339844 399.2895927429199C 238.75612894694018 388.0852470397949 241.72262064615893 352.69909286499023 237.63279724121094 340.8484916687012C 233.54297383626295 328.9978904724121 221.29978942871094 330.846248626709 211.79002380371094 328.18598556518555C 202.28025817871094 325.5257225036621 190.5501149495442 324.88691329956055 180.57420349121094 324.88691329956055C 170.59829203287768 324.88691329956055 161.13670349121094 324.3103345235188 151.93455505371094 328.18598556518555C 142.73240661621094 332.0616366068523 129.79018656412768 344.81501388549805 125.36131286621094 348.14081954956055Z M 55.85563987537944 282.02172311211666C 58.0941025170016 289.8481611866937 68.08479409449535 312.04463143404587 69.28641572511242 328.9803515595795C 70.48803735572949 345.91607168511314 66.11451212943723 368.69109838343843 63.065369659081625 383.6360438653189C 60.01622718872602 398.5809893471994 54.61371138522236 406.7774713707861 50.99156090297856 418.65002445086293C 47.369410420734766 430.52257753093977 42.74107975101742 441.86269318600966 41.33246676561885 454.87136234577974C 39.92385378022027 467.8800315055498 40.014721267825394 483.4529970727417 42.5398829905871 496.7020394094834C 45.06504471334881 509.9510817462251 48.83670333977591 520.409502186001 56.48343710218887 534.3656163662306C 64.13017086460184 548.3217305464602 74.64583885259117 565.314371729613 88.42028556506466 580.4387244908612C 102.19473227753815 595.5630772521095 122.72012075337284 612.6809030301449 139.13011737702982 625.1117329337196C 155.5401140006868 637.5425628372943 169.30269903982708 646.4964171914062 186.88026530700608 655.0237039123099C 204.4578315741851 663.5509906332136 228.00384229683277 671.8029839521387 244.59551498010342 676.2754532591416C 261.18718766337406 680.7479225661446 271.72657899803016 681.5316979128781 286.4303014066304 681.8585197543268C 301.13402381523065 682.1853415957755 316.47788381319106 681.4565848238733 332.8178494317044 678.2363843078342C 349.1578150502178 675.0161837917951 367.65131263102353 670.1558731161492 384.47009511771057 662.5373166580921C 401.2888776043976 654.918760200035 418.6786602285076 645.4032246522165 433.73054435182667 632.5250455594917C 448.7824284751457 619.6468664667668 463.51253525149946 603.6083222430871 474.78139985762436 585.2682421017428C 486.0502644637493 566.9281619603985 496.44923047527664 542.9254424469862 501.34373198857566 522.4845647114266C 506.2382335018747 502.0436869758671 503.9471827191903 481.9410338578298 504.14840893741894 462.6229756883854C 504.34963515564755 443.304917518941 500.1763415850146 413.99958377871985 502.5510892979473 406.57621569475987C 504.92583701088006 399.1528476107999 510.9775952917969 422.2488804553491 518.3968952150153 418.08276718462525C 525.8161951382338 413.9166539139014 541.0280598830693 397.280503134426 547.0668888372579 381.57953607041645C 553.1057177914465 365.8785690064069 555.7849018741547 337.6349770463662 554.6298689401474 323.8769648005682C 553.4748360061401 310.1189525547702 547.2107457637171 304.0350708831361 540.1366912332142 299.0314625956289C 533.0626367027112 294.02785430812173 517.8792922461248 292.64755026661373 512.1855417571296 293.8553150755249C 506.4917912681344 295.0630798844361 505.8747755570412 310.50644042983663 505.974188299243 306.2780514490955C 506.0736010414448 302.0496624683544 510.98896864843005 288.7948927090961 512.782018210341 268.4849811910781C 514.5750677722519 248.17506967306008 519.6211860787516 210.12833215293904 516.7324856707082 184.41858234098754C 513.8437852626648 158.70883252903604 509.68593490428384 135.9592968394379 495.4498157620801 114.22648231936887C 481.2136966198764 92.49366779930006 459.6149445385654 70.09272096249208 431.3157708174863 54.02169522057386C 403.01659709640717 37.95066947865564 357.92265881328876 24.038448644873824 325.6547734356059 17.80032786785955C 293.386888057923 11.562207090845277 264.16760983516474 12.769603677281339 237.7084585513885 16.592970558487877C 211.24930726761227 20.416337439694416 189.39840011753313 29.801404093260317 166.89986573294846 40.740529155098784C 144.40133134836378 51.67965421693725 118.33461807712865 67.28552782673489 102.71725224388092 82.22772092951857C 87.09988641063319 97.16991403230213 80.23061144524468 114.97171674018318 73.19567073346207 130.39368777180061C 66.16073002167946 145.81565880341805 63.45103115067138 161.32834266920077 60.50760797318526 174.75954711922373C 57.564184795699134 188.1907515692467 56.616291771228475 197.06870345742232 55.535131668545546 210.98091447193792C 54.453971565862616 224.89312548645353 54.07608451648832 246.68982713576293 54.020647357087455 258.23281320631736C 53.96521019768659 269.7757992768718 58.17235311798413 278.0857241460267 55.202508712140116 280.238830895265C 52.2326643062961 282.3919376445033 43.21508673516507 267.2947588929194 36.20158092202337 271.15145370174673C 29.188075108881662 275.0081485105741 15.419966442520831 287.07639857352433 13.12147383329011 303.3789997482288C 10.82298122405939 319.6816009229333 15.938172991158012 353.2475110193534 22.410625266638817 368.9670607499743C 28.883077542119622 384.68661048059516 45.154507843114516 395.14479029226914 51.95618748617471 397.69629813195434C 58.75786712923491 400.24780597163954 60.34804459404995 395.7856536722202 63.220703125 384.27610778808594C 66.09336165595005 372.7665619039517 70.39509161641104 345.85120281790114 69.192138671875 328.63902282714844C 67.98918572733896 311.42684283639574 58.201177660132316 288.94236034083315 56.00298545778378 281.00302784356995Z" fill-rule="evenodd" stroke="#ffffff" stroke-width="1" fill="#fff0b8" opacity="1" data-start="0" data-end="9999" data-layer="0" class=""></path><path d="M 504.573974609375 353.1250534057617 C 508.37122599283856 352.1840998331706 523.9852294921875 353.8036066691081 527.3574829101562 347.47933197021484 C 530.729736328125 341.1550572713216 528.4799499511719 317.85668690999347 524.8074951171875 315.17940521240234 C 521.1350402832031 312.5021235148112 508.740478515625 321.0885238647461 505.32275390625 331.41564178466797 C 501.905029296875 341.74275970458984 504.47141520182294 369.52103424072266 504.3011474609375 377.1421127319336" fill="#fdf2ba" stroke="#000000" stroke-width="5" opacity="1" data-start="0" data-end="9999" data-layer="0" class=""></path><path d="M 47.136566162109375 335.65636444091797 C 44.18634541829427 334.82352447509766 33.179545084635414 334.45254770914715 29.43524169921875 330.6593246459961 C 25.690938313802082 326.86610158284503 23.841211954752605 318.72676340738934 24.670745849609375 312.8970260620117 C 25.500279744466145 307.0672887166341 30.357289632161457 294.1996129353841 34.412445068359375 295.68090057373047 C 38.46760050455729 297.16218821207684 47.6866709391276 311.5778325398763 49.001678466796875 321.78475189208984 C 50.31668599446615 331.9916712443034 43.41902160644531 351.0661392211914 42.302490234375 356.9224166870117" fill="#fdf2ba" stroke="#000000" stroke-width="5" opacity="1" data-start="0" data-end="9999" data-layer="0" class=""></path><path d="M 55.61027854725444 279.7748969402419 C 57.42905328197556 287.60133501481897 65.32130532496414 309.7978052621708 66.52292695558117 326.7335253877045 C 67.7245485861982 343.6692455132382 65.44946289441123 366.4442722115636 62.820008330956625 381.38921769344415 C 60.190553767502024 396.3341631753247 54.36835005709736 404.53064519891115 50.74619957485356 416.40319827898793 C 47.124049092609766 428.2757513590647 42.49571842289242 439.61586701413466 41.08710543749385 452.62453617390474 C 39.67849245209527 465.6332053336748 39.76935993970043 481.20617090086654 42.2945216624621 494.4552132376084 C 44.819683385223776 507.70425557435027 48.591342011650944 518.1626760141262 56.23807577406387 532.1187901943558 C 63.8848095364768 546.0749043745855 74.40047752446617 563.0675455577381 88.17492423693966 578.1918983189862 C 101.94937094941315 593.3162510802343 122.47475942524791 610.4340768582696 138.88475604890482 622.8649067618444 C 155.2947526725617 635.2957366654192 169.05733771170216 644.2495910195312 186.63490397888108 652.7768777404349 C 204.21247024606 661.3041644613386 227.7584809687077 669.5561577802638 244.35015365197842 674.0286270872666 C 260.9418263352491 678.5010963942694 271.4812176699052 679.2848717410033 286.1849400785054 679.6116935824521 C 300.8886624871056 679.9385154239009 316.23252248506606 679.2097586519984 332.5724881035794 675.9895581359592 C 348.9124537220928 672.76935761992 367.40595130289853 667.9090469442742 384.22473378958557 660.2904904862171 C 401.0435162762726 652.67193402816 418.4332989003827 643.1563984803414 433.48518302370167 630.2782193876164 C 448.53706714702065 617.4000402948915 463.2671739233745 601.3614960712117 474.53603852949936 583.0214159298675 C 485.8049031356242 564.6813357885234 496.2038691471516 540.6786162751112 501.09837066045066 520.2377385395516 C 505.99287217374973 499.7968608039921 503.7018213910653 479.69420768595484 503.90304760929394 460.3761495165104 C 504.10427382752255 441.05809134706595 499.9309802568896 411.75275760684485 502.3057279698223 404.32938952288487 C 504.68047568275506 396.9060214389249 510.7322339636719 420.00205428347437 518.1515338868903 415.8359410127505 C 525.5708338101088 411.6698277420266 540.7826985549442 395.033676962551 546.8215275091329 379.33270989854145 C 552.8603564633216 363.6317428345319 555.5395405460297 335.38815087449115 554.3845076120224 321.6301386286932 C 553.2294746780151 307.87212638289526 546.9653844355921 301.7882447112611 539.8913299050892 296.7846364237539 C 532.8172753745862 291.78102813624673 517.6339309179998 290.400724094739 511.9401804290046 291.60848890365014 C 506.2464299400094 292.81625371256126 505.6294142289161 308.2596142579617 505.728826971118 304.0312252772205 C 505.8282397133199 299.80283629647937 510.7436073203051 286.5480665372211 512.536656882216 266.2381550192031 C 514.3297064441268 245.92824350118508 519.3758247506267 207.88150598106407 516.4871243425832 182.17175616911254 C 513.5984239345397 156.46200635716102 509.4405735761588 133.71247066756283 495.2044544339551 111.97965614749387 C 480.96833529175143 90.2468416274249 459.36958321044034 67.84589479061697 431.0704094893613 51.77486904869875 C 402.7712357682822 35.70384330678053 357.6772974851638 21.791622472998863 325.4094121074809 15.55350169598455 C 293.14152672979793 9.315380918970238 263.92224850703974 10.522777505406339 237.4630972232635 14.346144386612877 C 211.00394593948727 18.169511267819416 189.15303878940804 27.554577921385352 166.65450440482346 38.493702983223784 C 144.15597002023887 49.432828045062216 118.08925674900365 65.03870165485982 102.47189091575592 79.98089475764345 C 86.85452508250819 94.92308786042709 79.98525011711968 112.72489056830807 72.95030940533707 128.14686159992561 C 65.91536869355446 143.56883263154316 63.20566982254635 159.08151649732585 60.26224664506026 172.51272094734873 C 57.31882346757417 185.9439253973716 56.37093044310351 194.82187728554732 55.289770340420546 208.73408830006292 C 54.20861023773758 222.64629931457853 53.83072318836336 244.44300096388784 53.775286028962455 255.98598703444236 C 53.71984886956155 267.52897310499685 57.92699178985913 275.83889797415173 54.957147384015116 277.99200472339 C 51.9873029781711 280.14511147262823 42.96972540704004 265.0479327210444 35.95621959389837 268.90462752987173 C 28.9427137807567 272.7613223386991 15.174605114395868 284.82957240164944 12.87611250516511 301.13217357635403 C 10.577619895934353 317.4347747510586 15.764731422147634 351.11858442430133 22.165263938513817 366.7202345780993 C 28.56579645488 382.3218847318972 44.23168767567139 393.89967454734466 51.27930760336221 394.74207449914184 C 58.32692753105304 395.584474450939 62.25570418777602 375.60254099059216 64.45098350465878 371.7746342888822" fill="none" stroke="#000000" stroke-width="12" opacity="1" data-start="0" data-end="9999" data-layer="0" class=""></path></g>
</svg>
