<svg xmlns="http://www.w3.org/2000/svg" viewBox="0 0 300 400" width="128" height="128" role="img" >
  <path d="M 43.48761749267578 376.0080990791321 C 43.30605697631836 380.7153744697571 44.664511362711586 393.49886751174927 42.39825439453125 404.2517514228821 C 40.131997426350914 415.0046353340149 33.642537434895836 428.22571992874146 29.89007568359375 440.52540254592896 C 26.137613932291668 452.82508516311646 21.3427734375 464.5731752713521 19.88348388671875 478.0498471260071 C 18.4241943359375 491.52651898066205 18.518330891927082 507.6597409248352 21.13433837890625 521.3854336738586 C 23.750345865885418 535.1111264228821 27.657694498697918 545.9458012580872 35.57952880859375 560.4040036201477 C 43.501363118489586 574.8622059822083 54.395345052083336 592.4661780993143 68.66534423828125 608.1346478462219 C 82.93534342447917 623.8031175931295 104.19915771484375 641.536777973175 121.19952392578125 654.414822101593 C 138.19989013671875 667.292866230011 152.45760091145834 676.5688463846842 170.66754150390625 685.4029126167297 C 188.87748209635416 694.2369788487753 213.27058919270834 702.7858476638794 230.45916748046875 707.419219493866 C 247.64774576822916 712.0525913238525 258.56630452473956 712.8645639419556 273.79901123046875 713.2031435966492 C 289.03171793619794 713.5417232513428 304.92759195963544 712.7867485682169 321.85540771484375 709.4506974220276 C 338.78322347005206 706.1146462758383 357.9420471191406 701.0794800122579 375.36590576171875 693.1868367195129 C 392.7897644042969 685.294193426768 410.80516560872394 675.4363249142965 426.3985595703125 662.0948376655579 C 441.99195353190106 648.7533504168192 457.2519938151042 632.1378000577291 468.92626953125 613.1379132270813 C 480.6005452473958 594.1380263964335 491.3736267089844 569.2717798550924 496.4442138671875 548.0955166816711 C 501.5148010253906 526.9192535082499 499.1413269042969 506.0933829943339 499.34979248046875 486.08033418655396 C 499.5582580566406 466.067285378774 497.61313883463544 449.16021394729614 497.69500732421875 428.01722383499146 C 497.77687581380206 406.87423372268677 498.0745035807292 383.0655992825826 499.84100341796875 359.22239351272583 C 501.6075032552083 335.3791877428691 506.2030741373698 311.85052156448364 508.29400634765625 284.95798921585083 C 510.3849385579427 258.065456867218 515.3792215983073 224.50188875198364 512.3865966796875 197.86719942092896 C 509.3939717610677 171.23251008987427 505.08653767903644 147.66453218460083 490.3382568359375 125.1498532295227 C 475.58997599283856 102.63517427444458 453.2141825358073 79.42832612991333 423.89691162109375 62.779125690460205 C 394.5796407063802 46.12992525100708 347.86339314778644 31.717195351918537 314.43463134765625 25.254650592803955 C 281.00586954752606 18.792105833689373 250.73539225260416 20.042939980824787 223.3243408203125 24.003857135772705 C 195.91328938802084 27.964774290720623 173.27626927693686 37.68748013178507 149.96832275390625 49.020153522491455 C 126.66037623087566 60.35282691319784 99.65588124593098 76.52014080683391 83.4766616821289 91.99989748001099 C 67.29744211832683 107.47965415318806 60.181036631266274 125.92189836502075 52.89300537109375 141.89869356155396 C 45.604974110921226 157.87548875808716 42.79779052734375 173.9462602933248 39.74847412109375 187.8606686592102 C 36.69915771484375 201.7750770250956 35.7171630859375 210.97242403030396 34.59710693359375 225.38514375686646 C 33.47705078125 239.79786348342896 31.4463373819987 246.1859656969706 33.02813720703125 274.3369870185852 C 34.609937032063804 302.48800834019977 42.24461110432943 374.29889090855914 44.08790588378906 394.29127168655396" fill="#fff0b8" stroke="#000000" stroke-width="12" opacity="1" data-start="0" data-end="9999" data-layer="0" class=""></path>
</svg>
