<svg xmlns="http://www.w3.org/2000/svg" viewBox="0 0 400 750" width="400" height="750" role="img" >
  <path d="M 34.6207811832428 360.24486108124256 C 34.439220666885376 364.95213647186756 35.7976750532786 377.73562951385975 33.53141808509827 388.48851342499256 C 31.265161116917927 399.2413973361254 24.77570112546285 412.46248193085194 21.023239374160767 424.76216454803944 C 17.270777622858684 437.06184716522694 12.475937128067017 448.8099372734626 11.016647577285767 462.28660912811756 C 9.557358026504517 475.7632809827725 9.6514945824941 491.8965029269457 12.267502069473267 505.6221956759691 C 14.883509556452433 519.3478884249926 18.790858189264934 530.1825632601976 26.712692499160767 544.6407656222582 C 34.6345268090566 559.0989679843187 45.52850874265035 576.7029401014248 59.79850792884827 592.3714098483324 C 74.06850711504619 608.03987959524 95.33232140541077 625.7735399752855 112.33268761634827 638.6515841037035 C 129.33305382728577 651.5296282321215 143.59076460202536 660.8056083867947 161.80070519447327 669.6396746188402 C 180.01064578692117 678.4737408508857 204.40375288327536 687.0226096659899 221.59233117103577 691.6559814959764 C 238.78090945879617 696.289353325963 249.6994682153066 697.101325944066 264.93217492103577 697.4399055987597 C 280.16488162676495 697.7784852534533 296.06075565020245 697.0235105703274 312.98857140541077 693.6874594241381 C 329.9163871606191 690.3514082779487 349.07521080970764 685.3162420143684 366.49906945228577 677.4235987216234 C 383.9229280948639 669.5309554288784 401.93832929929096 659.673086916407 417.5317232608795 646.3315996676683 C 433.1251172224681 632.9901124189297 448.3851575056712 616.3745620598396 460.059433221817 597.3746752291918 C 471.73370893796283 578.374788398544 482.5067903995514 553.5085418572029 487.5773775577545 532.3322786837816 C 492.64796471595764 511.1560155103604 490.2744905948639 490.3301449964444 490.48295617103577 470.31709618866444 C 490.69142174720764 450.30404738088447 488.74630252520245 433.3969759494066 488.82817101478577 412.25398583710194 C 488.9100395043691 391.11099572479725 489.2076672712962 367.30236128469306 490.97416710853577 343.4591555148363 C 492.74066694577533 319.61594974497956 497.3362378279368 296.0872835665941 499.42717003822327 269.1947512179613 C 501.5181022485097 242.3022188693285 506.5123852888743 208.73865075409412 503.5197603702545 182.10396142303944 C 500.5271354516347 155.46927209198475 496.21970136960346 131.9012941867113 481.4714205265045 109.38661523163319 C 466.7231396834056 86.87193627655506 444.3473462263743 63.66508813202381 415.03007531166077 47.015887692570686 C 385.7128043969472 30.36668725311756 338.99655683835346 15.953957354029018 305.56779503822327 9.491412594914436 C 272.1390332380931 3.0288678357998533 241.86855594317117 4.27970198293527 214.45750451087952 8.240619137883186 C 187.04645307858786 12.201536292831102 164.40943296750388 21.924242133895554 141.10148644447327 33.256915524601936 C 117.79353992144267 44.58958891530832 90.789044936498 60.75690280894438 74.60982537269592 76.23665948212147 C 58.430605808893844 91.71641615529855 51.31420032183329 110.15866036713123 44.02616906166077 126.13545556366444 C 36.73813780148824 142.11225076019764 33.93095421791077 158.18302229543528 30.881637811660767 172.0974306613207 C 27.832321405410767 186.0118390272061 26.850326776504517 195.20918603241444 25.730270624160767 209.62190575897694 C 24.610214471817017 224.03462548553944 22.579501072565716 230.4227276990811 24.161300897598267 258.5737490206957 C 25.743100722630818 286.72477034231025 33.377774794896446 358.5356529106696 35.22106957435608 378.52803368866444" fill="#fff0b8" stroke="#000000" stroke-width="12" opacity="1" data-start="0" data-end="9999" data-layer="0" class=""></path>
</svg>
