<svg xmlns="http://www.w3.org/2000/svg" viewBox="0 0 550 400" width="550" height="400" role="img" >
<path d="M 32.439002990722656 238.49318313598633 C 31.655047098795574 257.64468065897626 24.23620351155599 356.13892873128253 27.735267639160156 353.4021682739258 C 31.234331766764324 350.66540781656903 38.657142639160156 255.81521797180176 53.433387756347656 222.0726203918457 C 68.20963287353516 188.33002281188965 115.2133560180664 148.8575325012207 116.39273834228516 150.94658279418945 C 117.5721206665039 153.0356330871582 59.788002014160156 221.7752774556478 60.509681701660156 234.6069221496582 C 61.231361389160156 247.4385668436686 102.61464182535808 231.6889737447103 120.72281646728516 227.93645095825195 C 138.83099110921225 224.1839281717936 146.8189264933268 220.8457374572754 169.15872955322266 212.0917854309082 C 191.4985326131185 203.33783340454102 249.2519302368164 175.95992596944174 254.76163482666016 175.41273880004883 C 260.2713394165039 174.86555163065592 220.39845530192056 199.0587590535482 202.21695709228516 208.80866241455078 C 184.03545888264975 218.55856577555338 139.81349436442056 232.35390408833823 145.67264556884766 233.91215896606445 C 151.53179677327475 235.47041384379068 211.193723042806 227.20510737101236 237.37186431884766 218.1581916809082 C 263.55000559488934 209.11127599080405 298.43717193603516 180.63464736938477 302.74149322509766 179.63066482543945 C 307.04581451416016 178.62668228149414 256.87878163655597 212.5834592183431 263.19779205322266 212.13429641723633 C 269.51680246988934 211.68513361612955 336.35127512613934 175.93170547485352 340.65555572509766 176.93568801879883 C 344.95983632405597 177.93967056274414 307.22745513916016 207.08512242635092 289.02347564697266 218.1581916809082 C 270.81949615478516 229.23126093546549 226.3180923461914 240.5501848856608 231.43167877197266 243.37410354614258 C 236.5452651977539 246.19802220662436 299.5887629191081 239.54620742797852 319.70499420166016 235.10170364379883 C 339.8212254842122 230.65719985961914 335.6267267862956 230.7416114807129 352.12906646728516 216.70708084106445 C 368.6314061482747 202.67255020141602 405.41340891520184 142.32975641886392 418.71903228759766 150.8945198059082 C 432.02465565999347 159.45928319295248 427.30037180582684 257.2790667215983 431.96280670166016 268.0956611633301 C 436.62524159749347 278.91225560506183 443.8995946248372 210.94293085734049 446.69364166259766 215.79408645629883 C 449.4876887003581 220.64524205525717 445.32507069905597 292.2158953348796 448.72708892822266 297.2025947570801 C 452.12910715738934 302.1892941792806 463.16356150309247 240.70631790161133 467.10575103759766 245.71428298950195 C 471.04794057210285 250.72224807739258 468.7769241333008 321.4610226949056 472.3802261352539 327.2503852844238 C 475.98352813720703 333.0397478739421 483.5588150024414 273.42123794555664 488.7255630493164 280.4504585266113 C 493.8923110961914 287.479679107666 499.74549102783203 381.8688799540202 503.3807144165039 369.42570877075195 C 507.0159378051758 356.9825375874837 512.5747858683268 244.53489049275717 510.53690338134766 205.79143142700195 C 508.49902089436847 167.04797236124674 497.5932795206706 153.78486506144205 491.1534194946289 136.9649543762207 C 484.7135594685872 120.14504369099934 481.52564239501953 115.56962458292644 471.89774322509766 104.87196731567383 C 462.2698440551758 94.17431004842122 447.2929865519206 81.97900263468425 433.38602447509766 72.77901077270508 C 419.4790623982747 63.579018910725914 404.50243886311847 56.73247146606445 388.45597076416016 49.67201614379883 C 372.40950266520184 42.6115608215332 353.5816421508789 35.55115636189779 337.10721588134766 30.416278839111328 C 320.6327896118164 25.28140131632487 306.9396336873372 21.00228754679362 289.60941314697266 18.862751007080078 C 272.2791926066081 16.723214467366535 252.59561920166016 16.081378936767578 233.12589263916016 17.579059600830078 C 213.65616607666016 19.076740264892578 191.832883199056 22.71395746866862 172.79105377197266 27.848834991455078 C 153.7492243448893 32.98371251424154 134.70743560791016 40.04414749145508 118.87491607666016 48.38832473754883 C 103.04239654541016 56.73250198364258 89.34942372639973 67.43018976847331 77.79593658447266 77.91389846801758 C 66.24244944254558 88.39760716756184 58.94469960530599 90.9922726949056 49.553993225097656 111.29057693481445 C 40.16328684488932 131.5888811747233 26.698829650878906 170.87453079223633 21.451698303222656 199.7037239074707 C 16.204566955566406 228.53291702270508 16.518389383951824 277.95744196573895 18.071205139160156 284.2657356262207 C 19.62402089436849 290.57402928670246 28.652361551920574 245.33886082967123 30.768592834472656 237.55348587036133" fill="#000000" stroke="#000000" stroke-width="8" opacity="1" data-start="0" data-end="9999" data-layer="0" class=""></path>
</svg>
