<svg xmlns="http://www.w3.org/2000/svg" viewBox="0 0 670 600" width="670" height="600" role="img" >
<path d="M 112.15601348876953 547.4845314025879 C 105.98287709554036 529.7809111277262 73.83222325642903 449.91088676452637 75.11719512939453 441.26280975341797 C 76.40216700236003 432.61473274230957 117.4492301940918 503.57732009887695 119.8658447265625 495.5960693359375 C 122.2824592590332 487.61481857299805 88.22611490885417 404.32753499348956 89.61688232421875 393.37530517578125 C 91.00764973958333 382.42307535807294 126.64584350585938 440.13954162597656 128.21044921875 429.8826904296875 C 129.77505493164062 419.62583923339844 104.6134427388509 361.3872267405192 99.0045166015625 331.8341979980469 C 93.3955904642741 302.2811692555745 80.63266626993816 283.193504969279 94.55689239501953 252.56451797485352 C 108.4811185201009 221.93553098042807 177.1982192993164 151.53425979614258 182.54987335205078 148.06027603149414 C 187.90152740478516 144.5862922668457 125.94513702392578 218.88897069295248 126.66681671142578 231.7206153869629 C 127.38849639892578 244.5522600809733 168.7717768351237 228.80266698201498 186.87995147705078 225.05014419555664 C 204.98812611897787 221.2976214090983 212.97606150309244 217.95943069458008 235.31586456298828 209.2054786682129 C 257.6556676228841 200.4515266418457 315.40906524658203 173.07361920674643 320.9187698364258 172.52643203735352 C 326.42847442626953 171.9792448679606 286.5555903116862 196.17245229085287 268.3740921020508 205.92235565185547 C 250.19259389241537 215.67225901285806 205.9706293741862 229.4675973256429 211.82978057861328 231.02585220336914 C 217.68893178304037 232.58410708109537 277.3508580525716 224.31880060831705 303.5289993286133 215.2718849182129 C 329.70714060465497 206.22496922810873 364.5943069458008 177.74834060668945 368.8986282348633 176.74435806274414 C 373.2029495239258 175.74037551879883 323.0359166463216 209.6971524556478 329.3549270629883 209.24798965454102 C 335.67393747965497 208.79882685343424 402.50841013590497 173.0453987121582 406.8126907348633 174.04938125610352 C 411.1169713338216 175.05336380004883 373.3845901489258 204.1988156636556 355.1806106567383 215.2718849182129 C 336.9766311645508 226.34495417277017 292.47522735595703 237.66387812296549 297.5888137817383 240.48779678344727 C 302.70240020751953 243.31171544392905 365.7458979288737 236.6599006652832 385.8621292114258 232.21539688110352 C 405.97836049397785 227.77089309692383 401.7838617960612 227.85530471801758 418.2862014770508 213.82077407836914 C 434.78854115804035 199.7862434387207 469.8320999145508 131.96812311808267 484.8761672973633 148.0082130432129 C 499.9202346801758 164.0483029683431 500.5851109822591 286.20635350545246 508.5506057739258 310.0613136291504 C 516.5161005655924 333.9162737528483 527.788948059082 282.11454645792645 532.6691360473633 291.1379737854004 C 537.5493240356445 300.16140111287433 543.2958043416342 336.7892036437988 537.8317337036133 364.20187759399414 C 532.3676630655924 391.61455154418945 500.46248118082684 441.9138018290202 499.8847122192383 455.61401748657227 C 499.3069432576497 469.31423314412433 534.2387262980143 436.44153722127277 534.365119934082 446.40317153930664 C 534.4915135701498 456.3648058573405 498.97143427530926 506.3157850901286 500.64307403564453 515.3838233947754 C 502.3147137959798 524.4518616994222 543.1693522135416 495.0220947265625 544.3949584960938 500.8114013671875 C 545.6205647786459 506.6007080078125 503.4767532348633 549.250441233317 507.99671173095703 550.1196632385254 C 512.5166702270508 550.9888852437338 553.6269035339355 527.9785213470459 571.5147094726562 506.0267333984375 C 589.402515411377 484.0749454498291 608.4010200500488 458.18739255269367 615.3235473632812 418.408935546875 C 622.2460746765137 378.63047854105633 618.2240358988444 308.8842144012451 613.0498733520508 267.3559913635254 C 607.8757108052572 225.82776832580566 598.8385899861654 198.56776555379233 584.2785720825195 169.23959732055664 C 569.7185541788737 139.91142908732095 547.300676981608 112.38477961222331 525.6897659301758 91.38698196411133 C 504.07885487874347 70.38918431599934 482.9336420694987 55.821234385172524 454.6131057739258 43.252811431884766 C 426.29256947835285 30.684388478597008 391.71070098876953 19.024824778238933 355.7665481567383 15.976444244384766 C 319.82239532470703 12.9280637105306 274.2504348754883 15.120670318603516 238.94818878173828 24.962528228759766 C 203.64594268798828 34.804386138916016 169.53407541910806 55.731449127197266 143.95307159423828 75.02759170532227 C 118.37206776936848 94.32373428344727 104.91059112548828 113.70041275024414 85.46216583251953 140.73938369750977 C 66.01374053955078 167.7783546447754 39.55872344970703 195.8566780090332 27.26251983642578 237.26141738891602 C 14.966316223144531 278.6661567687988 9.288174947102865 349.44204076131183 11.684944152832031 389.16781997680664 C 14.081713358561197 428.89359919230145 36.65010325113932 461.2080472310384 41.64313507080078 475.61609268188477" fill="#000000" stroke="#000000" stroke-width="8" opacity="1" data-start="0" data-end="9999" data-layer="0" class="selected"></path>
</svg>
