<svg xmlns="http://www.w3.org/2000/svg" viewBox="0 0 670 750" width="670" height="750" role="img" >
<path d="M 281.94529724121094 22.973325192928314 C 273.4562225341797 26.1882999142011 245.0130869547526 35.602459053198494 231.01084899902344 42.26317352056503 C 217.00861104329428 48.92388798793157 207.23535664876303 56.39071665207545 197.93186950683594 62.93761199712753 C 188.62838236490884 69.48450734217961 183.45970153808594 71.89648447434108 175.18992614746094 81.54454559087753 C 166.92015075683594 91.19260670741399 156.23840840657553 107.0430247982343 148.31321716308594 120.82597869634628 C 140.38802591959634 134.60893259445825 133.15196228027344 144.94614166021347 127.63877868652344 164.2422689795494 C 122.12559509277344 183.53839629888535 118.73006693522136 216.57765207688013 115.23411560058594 236.6027426123619 C 111.73816426595052 256.62783314784366 109.04053243001302 269.44293731451035 106.66307067871094 284.39281219244003 C 104.28560892740886 299.3426870703697 107.94045511881511 311.78488169113797 100.96934509277344 326.30199187994003 C 93.99823506673177 340.8191020687421 75.55273946126302 354.3999889095624 64.83641052246094 371.49547332525253 C 54.12008158365885 388.59095774094266 42.870649655659996 414.3608272274335 36.67137145996094 428.87489837408066 C 30.472093264261883 443.3889695207278 30.68126678466797 446.7982458472252 27.6407413482666 458.57990020513535 C 24.600215911865234 470.3615545630455 20.495663007100422 486.2532502214114 18.428218841552734 499.5648245215416 C 16.360774676005047 512.8763988216718 15.296726862589518 526.1659826636314 15.236076354980469 538.4493460059166 C 15.17542584737142 550.7327093482018 14.836350758870443 561.2049238880476 18.064315795898438 573.2650045752525 C 21.292280832926433 585.3250852624575 29.8459898630778 600.5139514009157 34.60386657714844 610.8098301291466 C 39.36174329121908 621.1057088573774 40.8011105855306 628.576709051927 46.611576080322266 635.0402769446373 C 52.42204157511393 641.5038448373476 64.92104911804199 659.0482494235039 69.46665954589844 649.5912374854088 C 74.01226997375488 640.1342255473137 69.75035095214844 572.9966623981794 73.88523864746094 578.2982053160667 C 78.02012634277344 583.5997482339541 88.46549987792969 675.921044409275 94.27598571777344 681.400494992733 C 100.08647155761719 686.879945576191 103.84078470865886 610.1163856387138 108.74815368652344 611.1749088168144 C 113.65552266438802 612.233431994915 118.97951761881511 683.5446593860785 123.72019958496094 687.7516340613365 C 128.46088155110678 691.9586087365946 131.92908223470053 634.5272241433462 137.19224548339844 636.4167568683624 C 142.45540873209634 638.3062895933787 150.3445281982422 695.5597603221735 155.29917907714844 699.0888304114342 C 160.2538299560547 702.6179005006949 161.37091573079428 656.2601697643598 166.92015075683594 657.5911774039268 C 172.4693857828776 658.9221850434939 182.21434020996094 706.7888339161873 188.59458923339844 707.0748762488365 C 194.97483825683594 707.3609185814857 198.3462168375651 658.665571709474 205.20164489746094 659.3074313998222 C 212.05707295735678 659.9492910901705 222.4798838297526 710.1062662402788 229.72715759277344 710.9260343909264 C 236.97443135579428 711.7458025415739 240.67676289876303 662.2644161581993 248.68528747558594 664.2260403037071 C 256.6938120524089 666.1876644492149 269.1751963297526 717.8806732694308 277.77830505371094 722.6957792639732 C 286.38141377766925 727.5108852585157 292.3314463297526 690.9771448175112 300.30393981933594 693.1166762709618 C 308.27643330891925 695.2562077244123 318.74656677246094 735.4383928577105 325.61326599121094 735.5329679846764 C 332.47996520996094 735.6275431116422 335.11265563964844 694.4453644951185 341.50413513183594 693.6841270327568 C 347.89561462402344 692.9228895703951 355.8230234781901 730.1457751393318 363.96214294433594 730.9655432105064 C 372.10126241048175 731.7853112816811 381.699712117513 697.9721183180809 390.33885192871094 698.6027354598045 C 398.9779917399089 699.2333526015282 407.62177022298175 736.1162983775139 415.79698181152344 734.7492460608482 C 423.9721934000651 733.3821937441826 432.9738413492839 692.6953745881716 439.39012145996094 690.4004215598106 C 445.806401570638 688.1054685314497 448.1036020914714 723.4636333982149 454.29466247558594 720.9795278906822 C 460.4857228597005 718.4954223831495 469.1698048909505 677.8965625166893 476.53648376464844 675.4957885146141 C 483.9031626383464 673.0950145125389 493.5400848388672 708.2144193847975 498.49473571777344 706.574883878231 C 503.4493865966797 704.9353483716646 502.08221944173175 667.7147755026817 506.26438903808594 665.6585754752159 C 510.4465586344401 663.6023754477501 518.8470306396484 696.377216676871 523.5877532958984 694.2376837134361 C 528.3284759521484 692.0981507500013 530.2765553792318 653.2019961078962 534.7087249755859 652.8213776946068 C 539.1408945719401 652.4407592813174 545.4040171305338 693.27373701334 550.1807708740234 691.9539732336998 C 554.9575246175131 690.6342094540596 559.0204111735026 646.3058908979098 563.3692474365234 644.9027950167656 C 567.7180836995443 643.4996991356214 567.5400746663412 690.6904291113218 576.2737884521484 683.5353979468346 C 585.0075022379557 676.3803667823473 610.2583465576172 605.4791928331057 615.7715301513672 601.9726080298424 C 621.2847137451172 598.4660232265791 605.9432118733724 657.9218550721804 609.3528900146484 662.4958891272545 C 612.7625681559244 667.0699231823286 628.6489817301432 639.7540242473284 636.2295989990234 629.4168123602867 C 643.8102162679037 619.079600473245 651.0462799072266 614.2555675705274 654.8365936279297 600.4726178050041 C 658.6269073486328 586.6896680394808 658.2823333740234 561.8803575634956 658.9714813232422 546.7191137671471 C 659.6606292724609 531.5578699707985 659.3160552978516 523.2881051103274 658.9714813232422 509.5051550269127 C 658.6269073486328 495.72220494349796 660.0052032470703 477.45978937546414 656.9040374755859 464.0214132666588 C 653.8028717041016 450.5830371578534 647.3221079508463 439.6834844946861 640.3644866943359 428.87489837408066 C 633.4068654378256 418.0663122534752 620.6662241617838 411.57455199956894 615.1583099365234 399.16989654302597 C 609.6503957112631 386.765241086483 608.3225250244141 368.10311645269394 607.3170013427734 354.44696563482285 C 606.3114776611328 340.79081481695175 608.5820261637369 331.2026190161705 609.1251678466797 317.2329916357994 C 609.6683095296224 303.2633642554283 610.4982350667318 288.2884064714114 610.5758514404297 270.6292013525963 C 610.6534678141276 252.9699962337812 610.1790822347006 231.3863373796145 609.5908660888672 211.27776092290878 C 609.0026499430338 191.16918446620306 610.3162790934244 166.044657488664 607.0465545654297 149.9777426123619 C 603.7768300374349 133.91082773605982 597.5133209228516 125.5926565527916 589.9725189208984 114.87627166509628 C 582.4317169189453 104.15988677740097 577.8678029378256 97.78161631027858 561.8017425537109 85.67943328619003 C 545.7356821695963 73.57725026210149 516.4770304361979 53.34111032883326 493.57615661621094 42.26317352056503 C 470.67528279622394 31.185236712296806 443.9340464274089 24.17410272359848 424.39649963378906 19.211812436580658 C 404.85895284016925 14.249522149562836 396.4064407348633 12.734152168035507 376.3508758544922 12.4894317984581 C 356.2953109741211 12.244711428880692 321.66461690266925 15.432785352071127 304.0631103515625 17.74349021911621 C 286.46160380045575 20.054195086161297 276.2953821818034 24.91863253712654 270.74183654785156 26.353661000728607" fill="none" stroke="#000000" stroke-width="8" opacity="1" data-start="0" data-end="9999" data-layer="0" class=""></path>
</svg>
