<svg xmlns="http://www.w3.org/2000/svg" viewBox="0 0 670 400" width="670" height="400" role="img" >
<path d="M 20.278961181640625 301.7315139770508 C 21.112843831380207 304.85855356852215 23.567433675130207 315.2617467244466 25.282257080078125 320.4937515258789 C 26.997080485026043 325.7257563273112 26.055389404296875 331.03885142008465 30.567901611328125 333.12354278564453 C 35.080413818359375 335.2082341512044 48.44347127278646 336.14921315511066 52.357330322265625 333.0018997192383 C 56.27118937174479 329.8545862833659 53.768768310546875 321.3276138305664 54.051055908203125 314.23966217041016 C 54.333343505859375 307.1517105102539 53.42564900716146 299.85530344645184 54.051055908203125 290.4741897583008 C 54.67646280924479 281.0930760701497 55.927276611328125 267.95950571695965 57.803497314453125 257.9529800415039 C 59.679718017578125 247.9464543660482 61.564921061197914 243.64275360107422 65.30838012695312 230.4350357055664 C 69.05183919270833 217.2273178100586 71.9187520345052 193.21015167236328 80.26425170898438 178.70667266845703 C 88.60975138346355 164.20319366455078 108.9368184407552 158.13060760498047 115.38137817382812 143.4141616821289 C 121.82593790690105 128.69771575927734 114.73988850911458 103.62466176350911 118.93161010742188 90.40799713134766 C 123.12333170572917 77.1913324991862 131.75806681315103 70.19555409749348 140.53170776367188 64.11417388916016 C 149.30534871419272 58.03279368082682 159.66159057617188 57.459241231282554 171.57345581054688 53.919715881347656 C 183.48532104492188 50.38019053141276 200.95439656575522 45.66797129313151 212.00289916992188 42.87702178955078 C 223.05140177408853 40.086072285970054 227.91653442382812 38.288185119628906 237.86447143554688 37.17401885986328 C 247.81240844726562 36.059852600097656 260.40443929036456 35.41872914632162 271.6905212402344 36.19202423095703 C 282.9766031901042 36.965319315592446 293.649175008138 39.500404357910156 305.5809631347656 41.81378936767578 C 317.51275126139325 44.127174377441406 331.0171152750651 47.17608388264974 343.28125 50.07233428955078 C 355.5453847249349 52.96858469645182 367.90574137369794 54.63857777913412 379.165771484375 59.19129180908203 C 390.42580159505206 63.744005839029946 403.1343180338542 70.19313303629558 410.8414306640625 77.38861846923828 C 418.5485432942708 84.58410390218098 421.40696716308594 91.42730458577473 425.408447265625 102.36420440673828 C 429.40992736816406 113.30110422770183 432.03709411621094 131.00397491455078 434.8503112792969 143.01001739501953 C 437.6635284423828 155.01605987548828 438.42772420247394 163.14093780517578 442.2877502441406 174.40045928955078 C 446.1477762858073 185.65998077392578 453.9845682779948 195.68721771240234 458.0104675292969 210.56714630126953 C 462.03636678059894 225.44707489013672 463.71058146158856 248.1342035929362 466.4431457519531 263.6800308227539 C 469.1757100423177 279.2258580525716 471.42445882161456 291.45458730061847 474.4058532714844 303.8421096801758 C 477.3872477213542 316.2296320597331 481.0094807942708 332.5197931925456 484.3315124511719 338.00516510009766 C 487.65354410807294 343.4905370076497 491.83640543619794 343.21688588460285 494.3380432128906 336.7543411254883 C 496.8396809895833 330.2917963663737 497.8820495605469 311.1126429239909 499.3413391113281 299.22989654541016 C 500.8006286621094 287.3471501668294 502.25990804036456 276.5067316691081 503.0937805175781 265.4578628540039 C 503.9276529947917 254.40899403889975 504.1361083984375 243.36014048258463 504.3445739746094 232.93668365478516 C 504.55303955078125 222.5132268269857 504.55303955078125 214.382937113444 504.3445739746094 202.91712188720703 C 504.1361083984375 191.45130666097006 504.76153564453125 175.60760243733725 503.0937805175781 164.14179229736328 C 501.426025390625 152.6759821573893 498.78322347005206 144.33724721272787 494.3380432128906 134.12226104736328 C 489.8928629557292 123.9072748819987 485.3868713378906 113.27533721923828 476.4226989746094 102.85187530517578 C 467.4585266113281 92.42841339111328 454.7556915283203 81.65534210205078 440.5530090332031 71.58148956298828 C 426.35032653808594 61.50763702392578 407.19142150878906 50.18945058186849 391.20660400390625 42.40876007080078 C 375.22178649902344 34.62806955973307 360.1852060953776 29.57775624593099 344.64410400390625 24.89734649658203 C 329.1030019124349 20.216936747233074 313.66249084472656 16.78088124593099 297.9599914550781 14.326301574707031 C 282.2574920654297 11.871721903483072 266.80406697591144 10.169868469238281 250.42910766601562 10.169868469238281 C 234.05414835611978 10.169868469238281 215.9911092122396 11.710304260253906 199.71023559570312 14.326301574707031 C 183.42936197916666 16.942298889160156 167.63929239908853 20.492703755696613 152.74386596679688 25.86585235595703 C 137.84843953450522 31.23900095621745 121.33950805664062 40.384925842285156 110.33767700195312 46.56519317626953 C 99.33584594726562 52.745460510253906 94.76907348632812 56.41108957926432 86.73287963867188 62.94745635986328 C 78.69668579101562 69.48382314046223 69.23524983723958 77.46490224202473 62.120513916015625 85.78339385986328 C 55.005777994791664 94.10188547770183 49.55876668294271 102.30030059814453 44.044464111328125 112.85840606689453 C 38.53016153971354 123.41651153564453 32.99561564127604 136.83234405517578 29.034698486328125 149.13202667236328 C 25.073781331380207 161.43170928955078 22.108123779296875 174.5182367960612 20.278961181640625 186.65650177001953 C 18.449798583984375 198.79476674397787 18.591023763020832 210.84542083740234 18.059722900390625 221.96161651611328 C 17.528422037760418 233.07781219482422 17.346689860026043 244.0196100870768 17.091156005859375 253.35367584228516 C 16.835622151692707 262.68774159749347 15.995218912760416 268.65222422281903 16.526519775390625 277.9660110473633 C 17.057820638020832 287.27979787190753 19.653554280598957 304.02466583251953 20.278961181640625 309.2363967895508 C 20.904368082682293 314.44812774658203 20.278961181640625 309.2363967895508 20.278961181640625 309.2363967895508" fill="#a3a3a3" stroke="#000000" stroke-width="12" opacity="1" data-start="0" data-end="9999" data-layer="0" class="selected"></path>
</svg>
