<svg xmlns="http://www.w3.org/2000/svg" viewBox="0 0 550 400" width="550" height="400" role="img" >
<path d="M 20.278167724609375 305.9535369873047 C 21.112050374348957 309.08057657877606 23.566640218098957 319.4837697347005 25.281463623046875 324.7157745361328 C 26.996287027994793 329.9477793375651 26.054595947265625 335.26087443033856 30.567108154296875 337.34556579589844 C 35.079620361328125 339.4302571614583 48.44267781575521 340.37123616536456 52.356536865234375 337.2239227294922 C 56.27039591471354 334.0766092936198 53.767974853515625 325.5496368408203 54.050262451171875 318.46168518066406 C 54.332550048828125 311.3737335205078 53.42485555013021 304.07732645670575 54.050262451171875 294.6962127685547 C 54.67566935221354 285.3150990804036 55.926483154296875 272.18152872721356 57.802703857421875 262.1750030517578 C 59.678924560546875 252.1684773763021 60.72126261393229 240.91113789876303 65.30758666992188 234.6570587158203 C 69.89391072591145 228.4029795328776 77.60728963216145 227.98603312174478 85.32064819335938 224.65052795410156 C 93.0340067545573 221.31502278645834 103.4574483235677 217.77106730143228 111.58773803710938 214.64402770996094 C 119.71802775065105 211.5169881184896 127.59278361002605 209.41199239095053 134.10238647460938 205.88829040527344 C 140.61198933919272 202.36458841959634 145.45388793945312 198.74032084147134 150.64535522460938 193.50181579589844 C 155.83682250976562 188.26331075032553 159.87155151367188 180.3146718343099 165.25119018554688 174.45726013183594 C 170.63082885742188 168.59984842936197 175.03541056315103 161.78045145670572 182.92318725585938 158.3573455810547 C 190.81096394856772 154.93423970540366 202.84060668945312 154.61136372884116 212.57785034179688 153.9186248779297 C 222.31509399414062 153.22588602701822 231.53559366861978 154.0597686767578 241.34664916992188 154.20091247558594 C 251.15770467122397 154.34205627441406 260.98743693033856 154.34854634602866 271.4441833496094 154.76548767089844 C 281.9009297688802 155.18242899576822 293.5087381998698 156.1241912841797 304.0871276855469 156.7025604248047 C 314.66551717122394 157.2809295654297 325.12949625651044 156.84373474121094 334.9145202636719 158.23570251464844 C 344.6995442708333 159.62767028808594 355.72231038411456 161.0196278889974 362.7972717285156 165.0543670654297 C 369.8722330729167 169.08910624186197 373.36280314127606 176.14301045735678 377.3642883300781 182.4441375732422 C 381.3657735188802 188.7452646891276 383.1543477376302 196.24366760253906 386.8061828613281 202.8611297607422 C 390.45801798502606 209.4785919189453 394.90395100911456 217.4749959309896 399.2752990722656 222.14891052246094 C 403.6466471354167 226.82282511393228 408.6564229329427 228.19451904296875 413.0342712402344 230.9046173095703 C 417.41211954752606 233.61471557617188 420.586181640625 235.63207499186197 425.5423889160156 238.4095001220703 C 430.49859619140625 241.18692525227866 437.16961669921875 244.09251403808594 442.7715148925781 247.5691680908203 C 448.3734130859375 251.0458221435547 456.39662679036456 254.1250203450521 459.1537780761719 259.26942443847656 C 461.9109293619792 264.41382853190106 458.9648132324219 271.8586730957031 459.3144226074219 278.4355926513672 C 459.6640319824219 285.01251220703125 460.6260274251302 292.05992635091144 461.2514343261719 298.73094177246094 C 461.87684122721356 305.40195719401044 462.62314860026044 312.85328674316406 463.0668640136719 318.46168518066406 C 463.5105794270833 324.07008361816406 463.28831990559894 328.00347900390625 463.9137268066406 332.38133239746094 C 464.5391337076823 336.7591857910156 463.4164733886719 343.08782958984375 466.8193054199219 344.7288055419922 C 470.2221374511719 346.3697814941406 479.74439493815106 342.85259501139325 484.3307189941406 342.22718811035156 C 488.9170430501302 341.6017812093099 491.8356119791667 347.43890889485675 494.3372497558594 340.9763641357422 C 496.83888753255206 334.5138193766276 497.8812561035156 315.3346659342448 499.3405456542969 303.45191955566406 C 500.7998352050781 291.5691731770833 502.2591145833333 280.728754679362 503.0929870605469 269.6798858642578 C 503.92685953776044 258.6310170491536 504.13531494140625 247.58216349283853 504.3437805175781 237.15870666503906 C 504.55224609375 226.7352498372396 504.55224609375 218.6049601236979 504.3437805175781 207.13914489746094 C 504.13531494140625 195.67332967122397 504.7607421875 179.82962544759116 503.0929870605469 168.3638153076172 C 501.42523193359375 156.89800516764322 498.7824300130208 148.55927022298178 494.3372497558594 138.3442840576172 C 489.89206949869794 128.1292978922526 485.3860778808594 117.49736022949219 476.4219055175781 107.07389831542969 C 467.4577331542969 96.65043640136719 454.75489807128906 85.87736511230469 440.5522155761719 75.80351257324219 C 426.3495330810547 65.72966003417969 407.1906280517578 54.4114735921224 391.205810546875 46.63078308105469 C 375.2209930419922 38.85009256998698 360.1844126383464 33.7997792561849 344.643310546875 29.119369506835938 C 329.1022084554036 24.43895975748698 313.6616973876953 21.002904256184895 297.9591979980469 18.548324584960938 C 282.25669860839844 16.09374491373698 266.8032735188802 14.391891479492188 250.42831420898438 14.391891479492188 C 234.05335489908853 14.391891479492188 215.99031575520834 15.932327270507812 199.70944213867188 18.548324584960938 C 183.4285685221354 21.164321899414062 167.63849894205728 24.71472676595052 152.74307250976562 30.087875366210938 C 137.84764607747397 35.46102396647135 121.33871459960938 44.60694885253906 110.33688354492188 50.78721618652344 C 99.33505249023438 56.96748352050781 94.76828002929688 60.63311258951823 86.73208618164062 67.16947937011719 C 78.69589233398438 73.70584615071614 69.23445638020833 81.68692525227864 62.119720458984375 90.00541687011719 C 55.004984537760414 98.32390848795573 49.55797322591146 106.52232360839844 44.043670654296875 117.08042907714844 C 38.52936808268229 127.63853454589844 32.99482218424479 141.0543670654297 29.033905029296875 153.3540496826172 C 25.072987874348957 165.6537322998047 22.107330322265625 178.7402598063151 20.278167724609375 190.87852478027344 C 18.449005126953125 203.01678975423178 18.590230305989582 215.06744384765625 18.058929443359375 226.1836395263672 C 17.527628580729168 237.29983520507812 17.345896402994793 248.24163309733072 17.090362548828125 257.57569885253906 C 16.834828694661457 266.9097646077474 15.994425455729166 272.87424723307294 16.525726318359375 282.1880340576172 C 17.057027180989582 291.50182088216144 19.652760823567707 308.24668884277344 20.278167724609375 313.4584197998047 C 20.903574625651043 318.67015075683594 20.278167724609375 313.4584197998047 20.278167724609375 313.4584197998047" fill="#a3a3a3" stroke="#000000" stroke-width="12" opacity="1" data-start="0" data-end="9999" data-layer="0" class=""></path>
</svg>
