<svg xmlns="http://www.w3.org/2000/svg" viewBox="0 0 500 300" width="128" height="128" role="img" >
<path d="M 90.67987060546875 120.94094848632812 C 86.68084716796875 122.27084350585938 75.37847900390625 123.65032958984375 66.68572998046875 128.92031860351562 C 57.99298095703125 134.1903076171875 45.606709798177086 142.5050811767578 38.52337646484375 152.56088256835938 C 31.440043131510418 162.61668395996094 25.67987060546875 173.8576405843099 24.18572998046875 189.255126953125 C 22.69158935546875 204.6526133219401 22.475199381510418 230.0687459309896 29.55853271484375 244.94580078125 C 36.641866048177086 259.82285563151044 53.529927571614586 275.0184783935547 66.68572998046875 278.5174560546875 C 79.84153238932292 282.0164337158203 96.93986002604167 272.0446421305339 108.49334716796875 265.9396667480469 C 120.04683430989583 259.8346913655599 132.3807373046875 250.89219665527344 136.00665283203125 241.88760375976562 C 139.632568359375 232.8830108642578 136.6144816080729 215.6043904622396 130.24884033203125 211.912109375 C 123.88319905598958 208.2198282877604 102.8438720703125 211.95660909016928 97.81280517578125 219.73391723632812 C 92.78173828125 227.51122538248697 96.89090983072917 248.33062744140625 100.06243896484375 258.5759582519531 C 103.23396809895833 268.8212890625 108.6416015625 276.0160675048828 116.84197998046875 281.2059020996094 C 125.0423583984375 286.39573669433594 135.13201904296875 291.7808787027995 149.26470947265625 289.7149658203125 C 163.39739990234375 287.6490529378255 193.49853515625 278.18116760253906 201.63812255859375 268.8104248046875 C 209.7777099609375 259.43968200683594 202.73213704427084 237.3755340576172 198.10223388671875 233.49050903320312 C 193.47233072916666 229.60548400878906 176.65533447265625 239.1646270751953 173.85870361328125 245.50027465820312 C 171.06207275390625 251.83592224121094 174.7939453125 264.61814371744794 181.32244873046875 271.50439453125 C 187.8509521484375 278.39064534505206 202.82425944010416 286.1911265055339 213.02972412109375 286.8177795410156 C 223.23518880208334 287.4444325764974 233.35526529947916 282.5387217203776 242.55523681640625 275.2643127441406 C 251.75520833333334 267.9899037679036 267.3737386067708 252.37132263183594 268.22955322265625 243.17132568359375 C 269.0853678385417 233.97132873535156 253.6808064778646 219.42247517903647 247.69012451171875 220.0643310546875 C 241.6994425455729 220.70618693033853 226.080810546875 236.75270080566406 232.28546142578125 247.0224609375 C 238.4901123046875 257.29222106933594 272.08083089192706 275.69219970703125 284.91802978515625 281.6828918457031 C 297.75522867838544 287.673583984375 301.60634358723956 284.2503306070964 309.30865478515625 282.96661376953125 C 317.01096598307294 281.6828969319661 323.85748291015625 279.11546834309894 331.13189697265625 273.9805908203125 C 338.40631103515625 268.84571329752606 348.8900146484375 259.8596649169922 352.95513916015625 252.1573486328125 C 357.020263671875 244.4550323486328 358.94590250651044 233.1155242919922 355.52264404296875 227.76669311523438 C 352.09938557942706 222.41786193847656 338.19232177734375 216.85506184895834 332.41558837890625 220.06436157226562 C 326.63885498046875 223.2736612955729 316.15525309244794 236.53878275553384 320.86224365234375 247.02249145507812 C 325.56923421223956 257.5062001546224 349.531982421875 276.3340657552083 360.65753173828125 282.96661376953125 C 371.7830810546875 289.5991617838542 381.19696044921875 286.60382588704425 387.61553955078125 286.8177795410156 C 394.03411865234375 287.031733194987 394.30991617838544 287.7176462809245 399.16900634765625 284.2503356933594 C 404.02809651692706 280.78302510579425 413.6336669921875 273.19341532389325 416.77008056640625 266.013916015625 C 419.906494140625 258.83441670735675 420.065185546875 246.6920623779297 417.98748779296875 241.17333984375 C 415.9097900390625 235.6546173095703 409.2268880208333 232.64146423339844 404.30389404296875 232.90158081054688 C 399.3809000651042 233.1616973876953 390.6860758463542 237.17125956217447 388.44952392578125 242.73403930664062 C 386.2129720052083 248.29681905110678 386.73350016276044 259.25084431966144 390.88458251953125 266.27825927734375 C 395.03566487630206 273.30567423502606 404.73390706380206 280.767328898112 413.35601806640625 284.8985290527344 C 421.97812906901044 289.02972920735675 433.4371744791667 290.476557413737 442.61724853515625 291.0654602050781 C 451.7973225911458 291.65436299641925 460.1300048828125 292.68219502766925 468.43646240234375 288.43194580078125 C 476.742919921875 284.18169657389325 488.6577962239583 273.0565541585286 492.45599365234375 265.56396484375 C 496.2541910807292 258.0713755289714 494.8802083333333 247.43348185221353 491.22564697265625 243.47640991210938 C 487.5710856119792 239.51933797200522 474.21409098307294 238.2771250406901 470.52862548828125 241.821533203125 C 466.84315999348956 245.3659413655599 464.31776936848956 257.4574381510417 469.11285400390625 264.74285888671875 C 473.90793863932294 272.0282796223958 491.4866943359375 280.35723368326825 499.29913330078125 285.5340576171875 C 507.111572265625 290.71088155110675 510.42470296223956 293.4503173828125 515.9874877929688 295.8038024902344 C 521.5502726236979 298.15728759765625 526.8838907877604 299.2668100992839 532.6758422851562 299.65496826171875 C 538.4677937825521 300.0431264241536 544.6444702148438 299.86891682942706 550.7391967773438 298.13275146484375 C 556.8339233398438 296.39658610026044 562.7309061686198 295.3537902832031 569.2442016601562 289.23797607421875 C 575.7574971516927 283.1221618652344 586.2857971191406 271.6830800374349 589.8189697265625 261.4378662109375 C 593.3521423339844 251.1926523844401 591.4089660644531 237.44366455078125 590.4432373046875 227.76669311523438 C 589.4775085449219 218.0897216796875 588.3036600748698 209.7946319580078 584.0245971679688 203.37603759765625 C 579.7455342610677 196.9574432373047 571.8293151855469 193.10628763834634 564.7688598632812 189.255126953125 C 557.7084045410156 185.40396626790366 548.0804646809896 181.55279541015625 541.661865234375 180.26907348632812 C 535.2432657877604 178.9853515625 529.8944600423177 178.77140299479166 526.2572631835938 181.55279541015625 C 522.6200663248698 184.33418782552084 520.2666015625 192.25045776367188 519.8386840820312 196.95742797851562 C 519.4107666015625 201.66439819335938 520.0525614420573 207.22717793782553 523.6897583007812 209.79461669921875 C 527.3269551595052 212.36205546061197 536.7409362792969 212.78996785481772 541.661865234375 212.362060546875 C 546.5827941894531 211.93415323893228 550.8618469238281 210.8643798828125 553.21533203125 207.2271728515625 C 555.5688171386719 203.5899658203125 555.3548685709635 198.2411346435547 555.7827758789062 190.538818359375 C 556.210683186849 182.8365020751953 557.494394938151 170.21326192220053 555.7827758789062 161.01327514648438 C 554.0711568196615 151.81328837076822 549.3642171223959 142.18539428710938 545.5130615234375 135.33889770507812 C 541.6619059244791 128.49240112304688 538.8804829915365 125.49708048502605 532.6758422851562 119.93429565429688 C 526.471201578776 114.3715108235677 517.2712605794271 106.88311767578125 508.28521728515625 101.96218872070312 C 499.29917399088544 97.041259765625 486.86720784505206 91.66984049479167 478.75958251953125 90.40872192382812 C 470.65195719401044 89.14760335286458 464.7270100911458 91.09366861979167 459.63946533203125 94.39547729492188 C 454.5519205729167 97.69728597005208 450.4571533203125 104.53745524088542 448.23431396484375 110.21957397460938 C 446.011474609375 115.90169270833333 443.9962565104167 123.8737284342448 446.30242919921875 128.48818969726562 C 448.6086018880208 133.10265096028647 456.21868896484375 136.01277669270834 462.07135009765625 137.90634155273438 C 467.92401123046875 139.7999064127604 476.42730712890625 143.32778930664062 481.41839599609375 139.84957885742188 C 486.40948486328125 136.37136840820312 492.888916015625 127.8446553548177 492.01788330078125 117.03707885742188 C 491.1468505859375 106.22950236002605 482.25307210286456 87.14449055989583 476.19219970703125 75.00411987304688 C 470.13132731119794 62.863749186197914 465.49448649088544 52.3250732421875 455.65264892578125 44.194854736328125 C 445.81081136067706 36.06463623046875 431.04811604817706 28.5762939453125 417.14117431640625 26.222808837890625 C 403.23423258463544 23.86932373046875 385.6900634765625 24.725118001302082 372.21099853515625 30.073944091796875 C 358.73193359375 35.422770182291664 343.56591796875 49.354451497395836 336.26678466796875 58.315765380859375 C 328.9676513671875 67.27707926432292 328.20225016276044 75.92555745442708 328.41619873046875 83.84182739257812 C 328.63014729817706 91.75809733072917 332.74676513671875 101.60421752929688 337.55047607421875 105.81338500976562 C 342.35418701171875 110.02255249023438 351.0338134765625 110.38055419921875 357.23846435546875 109.09683227539062 C 363.443115234375 107.8131103515625 370.18284098307294 103.74204508463542 374.77838134765625 98.11105346679688 C 379.37392171223956 92.48006184895833 385.39272054036456 83.67026774088542 384.81170654296875 75.31088256835938 C 384.23069254557294 66.95149739583333 382.06980387369794 57.410481770833336 371.29229736328125 47.954742431640625 C 360.51479085286456 38.499003092447914 335.9359944661458 20.850433349609375 320.14666748046875 18.576446533203125 C 304.3573404947917 16.302459716796875 287.40366617838544 28.439381917317707 276.55633544921875 34.310821533203125 C 265.70900472005206 40.18226114908854 259.24704996744794 46.047810872395836 255.06268310546875 53.805084228515625 C 250.8783162434896 61.562357584635414 248.84295654296875 72.28111775716145 251.45013427734375 80.85446166992188 C 254.05731201171875 89.4278055826823 262.04697672526044 102.38246663411458 270.70574951171875 105.24514770507812 C 279.36452229817706 108.10782877604167 298.03871663411456 105.63816324869792 303.40277099609375 98.03054809570312 C 308.76682535807294 90.42293294270833 309.18015543619794 72.74710083007812 302.89007568359375 59.599456787109375 C 296.59999593098956 46.451812744140625 278.33705647786456 27.69151814778646 265.66229248046875 19.144683837890625 C 252.9875284830729 10.597849527994791 242.03218587239584 9.064351399739584 226.84149169921875 8.318450927734375 C 211.65079752604166 7.572550455729167 186.8758748372396 9.973602294921875 174.51812744140625 14.669281005859375 C 162.1603800455729 19.364959716796875 158.6856892903646 28.790211995442707 152.69500732421875 36.492523193359375 C 146.7043253580729 44.19483439127604 140.4996134440104 51.897115071614586 138.57403564453125 60.883148193359375 C 136.6484578450521 69.86918131510417 136.00667317708334 81.63663736979167 141.14154052734375 90.40872192382812 C 146.27640787760416 99.18080647786458 159.7553507486979 109.45055135091145 169.38323974609375 113.51565551757812 C 179.0111287434896 117.5807596842448 192.4902547200521 118.22259521484375 198.90887451171875 114.79934692382812 C 205.3274943033854 111.3760986328125 208.75079345703125 101.53429158528645 207.89495849609375 92.97616577148438 C 207.03912353515625 84.4180399576823 201.04827880859375 70.08314005533855 193.77386474609375 63.450592041015625 C 186.49945068359375 56.81804402669271 177.5135498046875 55.320404052734375 164.24847412109375 53.180877685546875 C 150.9833984375 51.041351318359375 127.6624755859375 49.75761922200521 114.18341064453125 50.613433837890625 C 100.704345703125 51.46924845377604 91.85648600260417 54.506744384765625 83.37408447265625 58.315765380859375 C 74.89168294270833 62.124786376953125 69.62021891276042 65.89642333984375 63.28900146484375 73.46755981445312 C 56.957784016927086 81.0386962890625 48.63739013671875 92.88081868489583 45.38677978515625 103.74258422851562 C 42.13616943359375 114.60434977213542 37.780619303385414 124.60213216145833 43.78533935546875 138.63815307617188 C 49.790059407552086 152.6741739908854 68.64324951171875 186.55886840820312 81.41510009765625 187.95870971679688 C 94.18695068359375 189.35855102539062 114.23610432942708 156.96294148763022 120.41644287109375 147.03720092773438 C 126.59678141276042 137.11146036783853 120.33671061197917 133.08453369140625 118.49713134765625 128.40426635742188 C 116.65755208333333 123.7239990234375 112.69840494791667 120.45538330078125 109.37896728515625 118.95559692382812 C 106.05952962239583 117.455810546875 100.3802490234375 119.33055623372395 98.58050537109375 119.40554809570312" fill="#000000" stroke="#000000" stroke-width="8" opacity="1" data-start="0" data-end="9999" data-layer="0" class=""></path>
</svg>
