<svg xmlns="http://www.w3.org/2000/svg" viewBox="0 0 600 750" width="600" height="750" role="img" >
<path d="M 344.4106903076172 8.565053403377533 C 334.76263936360675 9.254201352596283 300.9944712320964 10.287923276424408 286.5223846435547 12.699941098690033 C 272.050298055013 15.111958920955658 267.5708262125651 19.591420590877533 257.5781707763672 23.037160336971283 C 247.58551534016928 26.482900083065033 237.24823506673178 28.205769956111908 226.5664520263672 33.37437957525253 C 215.8846689860026 38.54298919439316 202.79095967610678 47.50192270676295 193.4874725341797 54.04881805181503 C 184.1839853922526 60.59571339686712 179.0153045654297 63.00769052902857 170.7455291748047 72.65575164556503 C 162.4757537841797 82.30381276210149 151.79401143391928 98.1542308529218 143.8688201904297 111.93718475103378 C 135.9436289469401 125.72013864914577 128.2383270263672 141.74542246262232 123.19438171386719 155.3534750342369 C 118.15043640136719 168.9615276058515 115.67259216308594 181.5254212419192 113.60514831542969 193.58550018072128 C 111.53770446777344 205.64557911952338 112.68746439615886 214.06086232264838 110.78971862792969 227.7139486670494 C 108.89197285970052 241.36703501145044 104.59613545735677 261.8111369808515 102.21867370605469 275.50401824712753 C 99.84121195475261 289.1968995134036 100.53003438313802 299.1391958594322 96.52494812011719 309.87123626470566 C 92.51986185709636 320.6032766699791 84.21031188964844 331.1070201595624 78.18815612792969 339.89626067876816 C 72.16600036621094 348.6855011979739 66.67391459147136 353.73783121506375 60.39201354980469 362.60667937994003 C 54.11011250813802 371.4755275448163 45.19092305501302 383.54611215988797 40.49674987792969 393.10934966802597 C 35.80257670084635 402.672587176164 34.63900248209635 411.0271861751874 32.22697448730469 419.98610442876816 C 29.81494649251302 428.9450226823489 28.436609903971355 436.18107360601425 26.024581909179688 446.86285918951035 C 23.61255391438802 457.54464477300644 19.822250366210938 475.11790094772977 17.754806518554688 484.0768179297447 C 15.687362670898438 493.0357349117597 14.309066772460938 493.03573872645694 13.619918823242188 500.6163610816002 C 12.930770874023438 508.19698343674344 13.619918823242188 521.2907830278078 13.619918823242188 529.5605520606041 C 13.619918823242188 537.8303210934004 11.897038777669271 540.9314844806989 13.619918823242188 550.2349752783775 C 15.342798868815104 559.5384660760561 21.200607299804688 576.7671533624331 23.957199096679688 585.3814968466759 C 26.713790893554688 593.9958403309187 27.747461954752605 596.0632825891176 30.159469604492188 601.9210361838341 C 32.57147725423177 607.7787897785505 35.32808939615885 615.7039864261945 38.42924499511719 620.5280184149742 C 41.53040059407552 625.3520504037539 44.33423360188802 627.5028239289919 48.76640319824219 630.8652281165123 C 53.19857279459635 634.2276323040327 61.57652282714844 650.9450796643893 65.02226257324219 640.7024435400963 C 68.46800231933594 630.4598074158033 65.30595397949219 564.1078684528669 69.44084167480469 569.4094113707542 C 73.57572937011719 574.7109542886416 84.02110290527344 667.0322504639626 89.83158874511719 672.5117010474205 C 95.64207458496094 677.9911516308784 99.39638773600261 601.2275916934013 104.30375671386719 602.2861148715019 C 109.21112569173177 603.3446380496025 114.53512064615886 674.655865440766 119.27580261230469 678.862840116024 C 124.01648457845052 683.069814791282 127.48468526204427 625.6384301980337 132.7478485107422 627.5279629230499 C 138.0110117594401 629.4174956480662 145.90013122558594 686.670966376861 150.8547821044922 690.2000364661217 C 155.80943298339844 693.7291065553824 156.92651875813803 647.3713758190473 162.4757537841797 648.7023834586143 C 168.02498881022134 650.0333910981814 177.7699432373047 697.9000399708748 184.1501922607422 698.186082303524 C 190.5304412841797 698.4721246361732 193.90181986490884 649.7767777641615 200.7572479248047 650.4186374545097 C 207.61267598470053 651.060497144858 218.03548685709634 701.2174722949663 225.2827606201172 702.0372404456139 C 232.53003438313803 702.8570085962614 236.23236592610678 653.3756222128868 244.2408905029297 655.3372463583946 C 252.2494150797526 657.2988705039024 264.7307993570964 708.9918793241183 273.3339080810547 713.8069853186607 C 281.937016805013 718.6220913132032 287.8870493570964 682.0883508721987 295.8595428466797 684.2278823256493 C 303.832036336263 686.3674137790998 314.3021697998047 726.549598912398 321.1688690185547 726.6441740393639 C 328.0355682373047 726.7387491663297 330.6682586669922 685.556570549806 337.0597381591797 684.7953330874443 C 343.4512176513672 684.0340956250826 351.3786265055339 721.2569811940193 359.5177459716797 722.0767492651939 C 367.6568654378255 722.8965173363686 377.25531514485675 689.0833243727684 385.8944549560547 689.713941514492 C 394.5335947672526 690.3445586562157 403.1773732503255 727.2275044322014 411.3525848388672 725.8604521155357 C 419.5277964274089 724.4933997988701 428.5294443766276 683.8065806428591 434.9457244873047 681.5116276144981 C 441.36200459798175 679.2166745861372 443.6592051188151 714.5748394529024 449.8502655029297 712.0907339453697 C 456.04132588704425 709.606628437837 464.72540791829425 669.0077685713768 472.0920867919922 666.6069945693016 C 479.4587656656901 664.2062205672264 489.09568786621094 699.325625439485 494.0503387451172 697.6860899329185 C 499.00498962402344 696.0465544263521 497.6378224690755 658.8259815573692 501.8199920654297 656.7697815299034 C 506.0021616617839 654.7135815024376 514.4026336669922 687.4884227315584 519.1433563232422 685.3488897681236 C 523.8840789794922 683.2093568046888 525.8321584065756 644.3132021625837 530.2643280029297 643.9325837492943 C 534.6964975992838 643.5519653360049 540.9596201578776 684.3849430680275 545.7363739013672 683.0651792883873 C 550.5131276448568 681.7454155087471 554.5760142008463 637.4170969525973 558.9248504638672 636.0140010714531 C 563.2736867268881 634.6109051903089 563.0956776936849 681.8016351660093 571.8293914794922 674.6466040015221 C 580.5631052652994 667.4915728370348 605.8139495849609 596.5903988877932 611.3271331787109 593.0838140845299 C 616.8403167724609 589.5772292812666 601.4988149007162 649.0330611268679 604.9084930419922 653.607095181942 C 608.3181711832682 658.1811292370161 624.2045847574869 630.8652303020159 631.7852020263672 620.5280184149742 C 639.3658192952474 610.1908065279325 646.6018829345703 605.3667736252149 650.3921966552734 591.5838238596916 C 654.1825103759766 577.8008740941683 653.8379364013672 552.9915636181831 654.5270843505859 537.8303198218346 C 655.2162322998047 522.669076025486 654.8716583251953 514.3993111650149 654.5270843505859 500.6163610816002 C 654.1825103759766 486.83341099818546 655.5608062744141 468.57099543015164 652.4596405029297 455.1326193213463 C 649.3584747314453 441.6942432125409 641.7778371175131 430.3233160376549 635.9200897216797 419.98610442876816 C 630.0623423258463 409.64889281988144 621.4480336507162 400.6899720231692 617.3131561279297 393.10934966802597 C 613.1782786051432 385.5287273128827 613.5175832112631 382.4275666276614 611.1108245849609 374.5023702979088 C 608.7040659586588 366.57717396815616 603.9442799886068 356.58453379074734 602.8726043701172 345.55817168951035 C 601.8009287516276 334.53180958827335 604.1376291910807 322.313825070858 604.6807708740234 308.3441976904869 C 605.2239125569662 294.3745703101158 606.0538380940756 279.3996125260989 606.1314544677734 261.7404074072838 C 606.2090708414713 244.0812022884687 605.1701609293619 217.79293324549994 605.1464691162109 202.38896697759628 C 605.1227773030599 186.98500070969263 606.4133555094401 179.53327951828638 605.9893035888672 169.3166097998619 C 605.5652516682943 159.09994008143744 606.2280324300131 150.9967601497968 602.6021575927734 141.0889486670494 C 598.9762827555338 131.181137184302 591.7748565673828 120.58612579107285 584.2340545654297 109.86974090337753 C 576.6932525634766 99.15335601568222 567.0054168701172 86.43870045741399 557.3573455810547 76.79063934087753 C 547.7092742919922 67.14257822434108 537.7165578206381 59.21741749842962 526.3456268310547 51.98137420415878 C 514.9746958414713 44.74533090988795 499.81354268391925 38.19841521978378 489.1317596435547 33.37437957525253 C 478.4499766031901 28.550343930721283 475.6933237711589 26.827474057674408 462.2549285888672 23.037160336971283 C 448.8165334065755 19.246846616268158 423.6626230875651 14.078236997127533 408.5013885498047 10.632497251033783 C 393.34015401204425 7.186757504940033 382.658452351888 3.051869809627533 371.2875213623047 2.362721860408783 C 359.9165903727214 1.673573911190033 349.9238739013672 5.808461606502533 340.2758026123047 6.497609555721283 C 330.6277313232422 7.186757504940033 317.8785451253255 6.497609555721283 313.3990936279297 6.497609555721283 C 308.9196421305339 6.497609555721283 313.3990936279297 6.497609555721283 313.3990936279297 6.497609555721283" fill="#000000" stroke="#000000" stroke-width="8" opacity="1" data-start="0" data-end="9999" data-layer="0" class=""></path>
</svg>
