<svg xmlns="http://www.w3.org/2000/svg" viewBox="0 0 530 750" width="530" height="750" role="img" >
<path d="M 333.01051330566406 8.565053403377533 C 323.3624623616536 9.254201352596283 289.59429423014325 10.287923276424408 275.12220764160156 12.699941098690033 C 260.6501210530599 15.111958920955658 256.170649210612 19.591420590877533 246.17799377441406 23.037160336971283 C 236.18533833821616 26.482900083065033 225.84805806477866 28.205769956111908 215.16627502441406 33.37437957525253 C 204.48449198404947 38.54298919439316 191.39078267415366 47.50192270676295 182.08729553222656 54.04881805181503 C 172.78380839029947 60.59571339686712 167.61512756347656 63.00769052902857 159.34535217285156 72.65575164556503 C 151.07557678222656 82.30381276210149 140.39383443196616 98.1542308529218 132.46864318847656 111.93718475103378 C 124.54345194498698 125.72013864914577 116.83815002441406 141.74542246262232 111.79420471191406 155.3534750342369 C 106.75025939941406 168.9615276058515 104.27241516113281 181.5254212419192 102.20497131347656 193.58550018072128 C 100.13752746582031 205.64557911952338 101.28728739420573 214.06086232264838 99.38954162597656 227.7139486670494 C 97.49179585774739 241.36703501145044 93.19595845540364 261.8111369808515 90.81849670410156 275.50401824712753 C 88.44103495279948 289.1968995134036 89.12985738118489 299.1391958594322 85.12477111816406 309.87123626470566 C 81.11968485514323 320.6032766699791 72.81013488769531 331.1070201595624 66.78797912597656 339.89626067876816 C 60.76582336425781 348.6855011979739 55.27373758951823 353.73783121506375 48.99183654785156 362.60667937994003 C 42.7099355061849 371.4755275448163 33.7907460530599 383.54611215988797 29.096572875976562 393.10934966802597 C 24.40239969889323 402.672587176164 23.23882548014323 411.0271861751874 20.826797485351562 419.98610442876816 C 18.414769490559895 428.9450226823489 17.03643290201823 436.18107360601425 14.624404907226562 446.86285918951035 C 12.212376912434896 457.54464477300644 8.422073364257812 475.11790094772977 6.3546295166015625 484.0768179297447 C 4.2871856689453125 493.0357349117597 2.9088897705078125 493.03573872645694 2.2197418212890625 500.6163610816002 C 1.5305938720703125 508.19698343674344 2.2197418212890625 521.2907830278078 2.2197418212890625 529.5605520606041 C 2.2197418212890625 537.8303210934004 0.49686177571614576 540.9314844806989 2.2197418212890625 550.2349752783775 C 3.9426218668619795 559.5384660760561 9.800430297851562 576.7671533624331 12.557022094726562 585.3814968466759 C 15.313613891601562 593.9958403309187 16.34728495279948 596.0632825891176 18.759292602539062 601.9210361838341 C 21.171300252278645 607.7787897785505 23.92791239420573 615.7039864261945 27.029067993164062 620.5280184149742 C 30.130223592122395 625.3520504037539 32.9340565999349 627.5028239289919 37.36622619628906 630.8652281165123 C 41.79839579264323 634.2276323040327 50.17634582519531 650.9450796643893 53.62208557128906 640.7024435400963 C 57.06782531738281 630.4598074158033 53.90577697753906 564.1078684528669 58.04066467285156 569.4094113707542 C 62.17555236816406 574.7109542886416 72.62092590332031 667.0322504639626 78.43141174316406 672.5117010474205 C 84.24189758300781 677.9911516308784 87.99621073404948 601.2275916934013 92.90357971191406 602.2861148715019 C 97.81094868977864 603.3446380496025 103.13494364420573 674.655865440766 107.87562561035156 678.862840116024 C 112.61630757649739 683.069814791282 116.08450826009114 625.6384301980337 121.34767150878906 627.5279629230499 C 126.61083475748698 629.4174956480662 134.4999542236328 686.670966376861 139.45460510253906 690.2000364661217 C 144.4092559814453 693.7291065553824 145.5263417561849 647.3713758190473 151.07557678222656 648.7023834586143 C 156.62481180826822 650.0333910981814 166.36976623535156 697.9000399708748 172.75001525878906 698.186082303524 C 179.13026428222656 698.4721246361732 182.50164286295572 649.7767777641615 189.35707092285156 650.4186374545097 C 196.2124989827474 651.060497144858 206.63530985514322 701.2174722949663 213.88258361816406 702.0372404456139 C 221.1298573811849 702.8570085962614 224.83218892415366 653.3756222128868 232.84071350097656 655.3372463583946 C 240.84923807779947 657.2988705039024 253.33062235514322 708.9918793241183 261.93373107910156 713.8069853186607 C 270.5368398030599 718.6220913132032 276.48687235514325 682.0883508721987 284.45936584472656 684.2278823256493 C 292.4318593343099 686.3674137790998 302.90199279785156 726.549598912398 309.76869201660156 726.6441740393639 C 316.63539123535156 726.7387491663297 319.26808166503906 685.556570549806 325.65956115722656 684.7953330874443 C 332.05104064941406 684.0340956250826 339.97844950358075 721.2569811940193 348.11756896972656 722.0767492651939 C 356.2566884358724 722.8965173363686 365.8551381429036 689.0833243727684 374.49427795410156 689.713941514492 C 383.1334177652995 690.3445586562157 391.7771962483724 727.2275044322014 399.95240783691406 725.8604521155357 C 408.12761942545575 724.4933997988701 417.1292673746745 683.8065806428591 423.54554748535156 681.5116276144981 C 429.9618275960286 679.2166745861372 432.259028116862 714.5748394529024 438.45008850097656 712.0907339453697 C 444.6411488850911 709.606628437837 453.3252309163411 669.0077685713768 460.69190979003906 666.6069945693016 C 468.058588663737 664.2062205672264 477.6955108642578 699.325625439485 482.65016174316406 697.6860899329185 C 487.6048126220703 696.0465544263521 486.2376454671224 658.8259815573692 490.41981506347656 656.7697815299034 C 494.60198465983075 654.7135815024376 503.00245666503906 687.4884227315584 507.74317932128906 685.3488897681236 C 512.4839019775391 683.2093568046888 514.4319814046224 644.3132021625837 518.8641510009766 643.9325837492943 C 523.2963205973307 643.5519653360049 529.5594431559244 684.3849430680275 534.3361968994141 683.0651792883873 C 539.1129506429037 681.7454155087471 543.1758371988932 637.4170969525973 547.5246734619141 636.0140010714531 C 551.8735097249349 634.6109051903089 551.6955006917318 681.8016351660093 560.4292144775391 674.6466040015221 C 569.1629282633463 667.4915728370348 594.4137725830078 596.5903988877932 599.9269561767578 593.0838140845299 C 605.4401397705078 589.5772292812666 590.0986378987631 649.0330611268679 593.5083160400391 653.607095181942 C 596.9179941813151 658.1811292370161 612.8044077555338 630.8652303020159 620.3850250244141 620.5280184149742 C 627.9656422932943 610.1908065279325 635.2017059326172 605.3667736252149 638.9920196533203 591.5838238596916 C 642.7823333740234 577.8008740941683 642.4377593994141 552.9915636181831 643.1269073486328 537.8303198218346 C 643.8160552978516 522.669076025486 643.4714813232422 514.3993111650149 643.1269073486328 500.6163610816002 C 642.7823333740234 486.83341099818546 644.1606292724609 468.57099543015164 641.0594635009766 455.1326193213463 C 637.9582977294922 441.6942432125409 630.3776601155599 430.3233160376549 624.5199127197266 419.98610442876816 C 618.6621653238932 409.64889281988144 610.0478566487631 400.6899720231692 605.9129791259766 393.10934966802597 C 601.7781016031901 385.5287273128827 602.1174062093099 382.4275666276614 599.7106475830078 374.5023702979088 C 597.3038889567057 366.57717396815616 592.5441029866537 356.58453379074734 591.4724273681641 345.55817168951035 C 590.4007517496744 334.53180958827335 592.7374521891276 322.313825070858 593.2805938720703 308.3441976904869 C 593.8237355550131 294.3745703101158 594.6536610921224 279.3996125260989 594.7312774658203 261.7404074072838 C 594.8088938395182 244.0812022884687 593.7699839274088 217.79293324549994 593.7462921142578 202.38896697759628 C 593.7226003011068 186.98500070969263 595.0131785074869 179.53327951828638 594.5891265869141 169.3166097998619 C 594.1650746663412 159.09994008143744 594.8278554280599 150.9967601497968 591.2019805908203 141.0889486670494 C 587.5761057535807 131.181137184302 580.3746795654297 120.58612579107285 572.8338775634766 109.86974090337753 C 565.2930755615234 99.15335601568222 555.6052398681641 86.43870045741399 545.9571685791016 76.79063934087753 C 536.3090972900391 67.14257822434108 526.3163808186849 59.21741749842962 514.9454498291016 51.98137420415878 C 503.57451883951825 44.74533090988795 488.4133656819661 38.19841521978378 477.73158264160156 33.37437957525253 C 467.049799601237 28.550343930721283 464.29314676920575 26.827474057674408 450.85475158691406 23.037160336971283 C 437.4163564046224 19.246846616268158 412.262446085612 14.078236997127533 397.10121154785156 10.632497251033783 C 381.9399770100911 7.186757504940033 371.2582753499349 3.051869809627533 359.88734436035156 2.362721860408783 C 348.51641337076825 1.673573911190033 338.52369689941406 5.808461606502533 328.87562561035156 6.497609555721283 C 319.22755432128906 7.186757504940033 306.4783681233724 6.497609555721283 301.99891662597656 6.497609555721283 C 297.51946512858075 6.497609555721283 301.99891662597656 6.497609555721283 301.99891662597656 6.497609555721283" fill="#000000" stroke="#000000" stroke-width="8" opacity="1" data-start="0" data-end="9999" data-layer="0" class="selected"></path>
</svg>
