<svg xmlns="http://www.w3.org/2000/svg" viewBox="0 0 600 300" width="600" height="300" role="img" >
<path d="M 29.3287353515625 203.26282119750977 C 31.896158854166668 209.0395596822103 37.88677978515625 241.77440770467123 44.7332763671875 237.9232521057129 C 51.57977294921875 234.07209650675455 63.989115397135414 181.65355809529623 70.40771484375 180.15588760375977 C 76.82631429036458 178.6582171122233 74.25882975260417 228.08141454060873 83.244873046875 228.93722915649414 C 92.23091634114583 229.79304377237955 115.97979736328125 185.07682673136392 124.323974609375 185.29077529907227 C 132.66815185546875 185.5047238667806 125.60762532552083 231.50464248657227 133.3099365234375 230.22092056274414 C 141.01224772135416 228.93719863891602 161.1239013671875 179.08611424763998 170.537841796875 177.58844375610352 C 179.9517822265625 176.09077326456705 180.80755615234375 220.59303665161133 189.7935791015625 221.2348976135254 C 198.77960205078125 221.87675857543945 216.96561686197916 179.72798538208008 224.4539794921875 181.4396095275879 C 231.94234212239584 183.1512336730957 225.73771158854166 235.56975682576498 234.7237548828125 231.50464248657227 C 243.70979817708334 227.43952814737955 269.1702473958333 155.3372942606608 278.3702392578125 157.04892349243164 C 287.5702311197917 158.76055272420248 280.9376627604167 237.70930353800455 289.9237060546875 241.77441787719727 C 298.9097493489583 245.83953221638998 323.3004557291667 183.15123875935873 332.2864990234375 181.4396095275879 C 341.2725423177083 179.72798029581705 336.56557210286456 233.00231806437174 343.8399658203125 231.50464248657227 C 351.11435953776044 230.0069669087728 367.16078694661456 170.95588048299155 375.932861328125 172.45355606079102 C 384.70493570963544 173.95123163859049 390.05381266276044 241.5604591369629 396.472412109375 240.49069595336914 C 402.89101155598956 239.4209327697754 408.8816731770833 165.39312108357748 414.4444580078125 166.03497695922852 C 420.0072428385417 166.67683283487955 424.2863362630208 241.98834609985352 429.84912109375 244.3418312072754 C 435.4119059244792 246.69531631469727 442.68629964192706 179.08611933390299 447.8211669921875 180.15588760375977 C 452.95603434244794 181.22565587361655 455.0955403645833 248.83486302693686 460.6583251953125 250.76044082641602 C 466.2211100260417 252.68601862589517 475.6350809733073 191.9233080546061 481.1978759765625 191.70935440063477 C 486.7606709798177 191.49540074666342 490.6118469238281 241.34649531046549 494.03509521484375 249.4767189025879 C 497.4583435058594 257.60694249471027 499.81178792317706 248.40696589152017 501.73736572265625 240.49069595336914 C 503.66294352213544 232.5744260152181 505.3746032714844 214.60233942667642 505.58856201171875 201.97909927368164 C 505.8025207519531 189.35585912068686 504.518798828125 176.30472691853842 503.0211181640625 164.7512550354004 C 501.5234375 153.19778315226236 500.88153076171875 143.35593032836914 496.60247802734375 132.65826797485352 C 492.32342529296875 121.96060562133789 486.9747009277344 111.26293818155925 477.3468017578125 100.56528091430664 C 467.7189025878906 89.86762364705403 452.74204508463544 77.67231623331706 438.8350830078125 68.47232437133789 C 424.92812093098956 59.272332509358726 409.9514973958333 52.425785064697266 393.905029296875 45.36532974243164 C 377.8585611979167 38.304874420166016 359.03070068359375 31.244469960530598 342.5562744140625 26.10959243774414 C 326.08184814453125 20.974714914957683 312.38869222005206 16.695601145426433 295.0584716796875 14.55606460571289 C 277.72825113932294 12.41652806599935 258.044677734375 11.77469253540039 238.574951171875 13.27237319946289 C 219.105224609375 14.77005386352539 197.28194173177084 18.407271067301433 178.2401123046875 23.54214859008789 C 159.19828287760416 28.677026112874348 140.156494140625 35.73746109008789 124.323974609375 44.08163833618164 C 108.491455078125 52.42581558227539 94.79848225911458 63.12350336710612 83.2449951171875 73.60721206665039 C 71.69150797526042 84.09092076619466 63.13330078125 94.7885627746582 55.0030517578125 106.98389053344727 C 46.872802734375 119.17921829223633 39.17047119140625 134.15593846638998 34.4635009765625 146.77917861938477 C 29.75653076171875 159.40241877237955 27.189127604166668 172.4535764058431 26.76123046875 182.72333145141602 C 26.333333333333332 192.99308649698892 31.040303548177082 204.11864598592123 31.8961181640625 208.39770889282227" fill="#cd3737" stroke="#000000" stroke-width="8" opacity="1" data-start="0" data-end="9999" data-layer="0" class=""></path>
</svg>
