<svg xmlns="http://www.w3.org/2000/svg" viewBox="0 0 670 750" width="670" height="750" role="img" >
<path d="M 335.42388916015625 16.925771176815033 C 325.7758382161458 17.614919126033783 292.00767008463544 18.648641049861908 277.53558349609375 21.060658872127533 C 263.06349690755206 23.472676694393158 258.5840250651042 27.952138364315033 248.59136962890625 31.397878110408783 C 238.59871419270834 34.84361785650253 228.26143391927084 36.56648772954941 217.57965087890625 41.73509734869003 C 206.89786783854166 46.90370696783066 193.80415852864584 55.86264048020045 184.50067138671875 62.40953582525253 C 175.19718424479166 68.95643117030461 170.02850341796875 71.36840830246608 161.75872802734375 81.01646941900253 C 153.48895263671875 90.66453053553899 142.80721028645834 106.5149486263593 134.88201904296875 120.29790252447128 C 126.95682779947917 134.08085642258325 119.25152587890625 150.10614023605982 114.20758056640625 163.7141928076744 C 109.16363525390625 177.322245379289 106.685791015625 189.8861390153567 104.61834716796875 201.94621795415878 C 102.5509033203125 214.00629689296088 103.70066324869792 222.42158009608588 101.80291748046875 236.0746664404869 C 99.90517171223958 249.72775278488794 95.60933430989583 270.171854754289 93.23187255859375 283.86473602056503 C 90.85441080729167 297.5576172868411 91.54323323567708 307.4999136328697 87.53814697265625 318.23195403814316 C 83.53306070963542 328.9639944434166 75.2235107421875 339.4677379329999 69.20135498046875 348.25697845220566 C 63.17919921875 357.0462189714114 57.687113444010414 362.09854898850125 51.40521240234375 370.96739715337753 C 45.123311360677086 379.8362453182538 36.204121907552086 391.90682993332547 31.50994873046875 401.47006744146347 C 26.815775553385418 411.0333049496015 25.652201334635418 419.3879039486249 23.24017333984375 428.34682220220566 C 20.828145345052082 437.3057404557864 19.449808756510418 444.54179137945175 17.03778076171875 455.22357696294785 C 14.625752766927084 465.90536254644394 10.83544921875 483.47861872116727 8.76800537109375 492.4375357031822 C 6.7005615234375 501.3964526851972 5.322265625 501.39645649989444 4.63311767578125 508.9770788550377 C 3.9439697265625 516.5577012101809 4.63311767578125 529.6515008012453 4.63311767578125 537.9212698340416 C 4.63311767578125 546.1910388668379 2.910237630208333 549.2922022541364 4.63311767578125 558.595693051815 C 6.355997721354167 567.8991838494936 12.21380615234375 585.1278711358706 14.97039794921875 593.7422146201134 C 17.72698974609375 602.3565581043562 18.760660807291668 604.4240003625551 21.17266845703125 610.2817539572716 C 23.584676106770832 616.139507551988 26.341288248697918 624.064704199632 29.44244384765625 628.8887361884117 C 32.543599446614586 633.7127681771914 35.347432454427086 635.8635417024294 39.77960205078125 639.2259458899498 C 44.211771647135414 642.5883500774702 52.5897216796875 659.3057974378268 56.03546142578125 649.0631613135338 C 59.481201171875 638.8205251892408 56.31915283203125 572.4685862263044 60.45404052734375 577.7701291441917 C 64.58892822265625 583.0716720620791 75.0343017578125 675.3929682374 80.84478759765625 680.872418820858 C 86.6552734375 686.351869404316 90.40958658854167 609.5883094668388 95.31695556640625 610.6468326449394 C 100.22432454427083 611.70535582304 105.54831949869792 683.0165832142035 110.28900146484375 687.2235578894615 C 115.02968343098958 691.4305325647196 118.49788411458333 633.9991479714712 123.76104736328125 635.8886806964874 C 129.02421061197916 637.7782134215037 136.913330078125 695.0316841502985 141.86798095703125 698.5607542395592 C 146.8226318359375 702.0898243288199 147.9397176106771 655.7320935924848 153.48895263671875 657.0631012320518 C 159.0381876627604 658.3941088716189 168.78314208984375 706.2607577443123 175.16339111328125 706.5468000769615 C 181.54364013671875 706.8328424096107 184.9150187174479 658.137495537599 191.77044677734375 658.7793552279472 C 198.6258748372396 659.4212149182955 209.0486857096354 709.5781900684038 216.29595947265625 710.3979582190514 C 223.5432332356771 711.2177263696989 227.24556477864584 661.7363399863243 235.25408935546875 663.6979641318321 C 243.26261393229166 665.6595882773399 255.7439982096354 717.3525970975558 264.34710693359375 722.1677030920982 C 272.95021565755206 726.9828090866407 278.90024820963544 690.4490686456362 286.87274169921875 692.5886000990868 C 294.84523518880206 694.7281315525373 305.31536865234375 734.9103166858355 312.18206787109375 735.0048918128014 C 319.04876708984375 735.0994669397672 321.68145751953125 693.9172883232435 328.07293701171875 693.1560508608818 C 334.46441650390625 692.3948133985201 342.39182535807294 729.6176989674568 350.53094482421875 730.4374670386314 C 358.67006429036456 731.2572351098061 368.2685139973958 697.4440421462059 376.90765380859375 698.0746592879295 C 385.5467936197917 698.7052764296532 394.19057210286456 735.5882222056389 402.36578369140625 734.2211698889732 C 410.54099527994794 732.8541175723076 419.5426432291667 692.1672984162966 425.95892333984375 689.8723453879356 C 432.3752034505208 687.5773923595747 434.6724039713542 722.9355572263399 440.86346435546875 720.4514517188072 C 447.0545247395833 717.9673462112745 455.7386067708333 677.3684863448143 463.10528564453125 674.9677123427391 C 470.4719645182292 672.5669383406639 480.10888671875 707.6863432129225 485.06353759765625 706.046807706356 C 490.0181884765625 704.4072721997896 488.65102132161456 667.1866993308067 492.83319091796875 665.1304993033409 C 497.01536051432294 663.0742992758751 505.41583251953125 695.849140504996 510.15655517578125 693.7096075415611 C 514.8972778320312 691.5700745781263 516.8453572591146 652.6739199360212 521.2775268554688 652.2933015227318 C 525.7096964518229 651.9126831094424 531.9728190104166 692.745660841465 536.7495727539062 691.4258970618248 C 541.5263264973959 690.1061332821846 545.5892130533854 645.7778147260348 549.9380493164062 644.3747188448906 C 554.2868855794271 642.9716229637464 554.108876546224 690.1623529394468 562.8425903320312 683.0073217749596 C 571.5763041178385 675.8522906104723 596.8271484375 604.9511166612307 602.34033203125 601.4445318579674 C 607.853515625 597.9379470547041 592.5120137532552 657.3937789003054 595.9216918945312 661.9678129553795 C 599.3313700358073 666.5418470104536 615.217783610026 639.2259480754534 622.7984008789062 628.8887361884117 C 630.3790181477865 618.55152430137 637.6150817871094 613.7274913986524 641.4053955078125 599.9445416331291 C 645.1957092285156 586.1615918676058 644.8511352539062 561.3522813916206 645.540283203125 546.1910375952721 C 646.2294311523438 531.0297937989235 645.8848571777344 522.7600289384524 645.540283203125 508.9770788550377 C 645.1957092285156 495.19412877162296 646.5740051269531 476.93171320358914 643.4728393554688 463.4933370947838 C 640.3716735839844 450.0549609859784 632.7910359700521 438.6840338110924 626.9332885742188 428.34682220220566 C 621.0755411783854 418.00961059331894 612.4612325032552 409.0506897966067 608.3263549804688 401.47006744146347 C 604.1914774576823 393.8894450863202 604.5307820638021 390.7882844010989 602.1240234375 382.8630880713463 C 599.7172648111979 374.93789174159366 594.9574788411459 364.94525156418484 593.8858032226562 353.91888946294785 C 592.8141276041666 342.89252736171085 595.1508280436198 330.6745428442955 595.6939697265625 316.7049154639244 C 596.2371114095052 302.7352880835533 597.0670369466146 287.7603302995364 597.1446533203125 270.1011251807213 C 597.2222696940104 252.4419200619062 596.183359781901 226.15365101893744 596.15966796875 210.74968475103378 C 596.135976155599 195.34571848313013 597.4265543619791 187.89399729172388 597.0025024414062 177.6773275732994 C 596.5784505208334 167.46065785487494 597.2412312825521 159.3574779232343 593.6153564453125 149.4496664404869 C 589.9894816080729 139.5418549577395 582.7880554199219 128.94684356451035 575.2472534179688 118.23045867681503 C 567.7064514160156 107.51407378911972 558.0186157226562 94.79941823085149 548.3705444335938 85.15135711431503 C 538.7224731445312 75.50329599777858 528.7297566731771 67.57813527186711 517.3588256835938 60.34209197759628 C 505.98789469401044 53.10604868332545 490.8267415364583 46.55913299322128 480.14495849609375 41.73509734869003 C 469.4631754557292 36.91106170415878 466.70652262369794 35.18819183111191 453.26812744140625 31.397878110408783 C 439.82973225911456 27.607564389705658 414.6758219401042 22.438954770565033 399.51458740234375 18.993215024471283 C 384.3533528645833 15.547475278377533 373.67165120442706 11.412587583065033 362.30072021484375 10.723439633846283 C 350.92978922526044 10.034291684627533 340.93707275390625 14.169179379940033 331.28900146484375 14.858327329158783 C 321.64093017578125 15.547475278377533 308.89174397786456 14.858327329158783 304.41229248046875 14.858327329158783 C 299.93284098307294 14.858327329158783 304.41229248046875 14.858327329158783 304.41229248046875 14.858327329158783" fill="#b14110" stroke="#000000" stroke-width="8" opacity="1" data-start="0" data-end="9999" data-layer="0" class=""></path>
</svg>
