<svg xmlns="http://www.w3.org/2000/svg" viewBox="0 0 100 100" width="100" height="100" role="img" >
<g data-start="0" data-end="9999" data-layer="0" class="selected"><path d="M 76.13781547546387 27.3494291305542 C 73.63353792826335 25.743873914082844 66.31260999043782 19.87304464975993 61.11215019226074 17.716097831726074 C 55.91169039408366 15.55915101369222 50.159833908081055 13.700920422871908 44.93505668640137 14.407748222351074 C 39.71027946472168 15.11457602183024 32.29208183288574 18.194562594095867 29.763486862182617 21.957064628601074 C 27.234891891479492 25.71956666310628 27.414640426635742 32.34584331512451 29.763486862182617 36.982760429382324 C 32.11233329772949 41.61967754364014 38.64394950866699 46.89048544565836 43.85656547546387 49.77856731414795 C 49.06918144226074 52.666649182637535 58.17541313171387 53.55580425262451 61.03918266296387 54.311251640319824 C 63.90295219421387 55.06669902801514 61.03918266296387 54.311251640319824 61.03918266296387 54.311251640319824" fill="none" stroke="#000000" stroke-width="12" opacity="1" data-start="0" data-end="9999" data-layer="0" class="selected"></path><path d="M 71.99542045593262 88.72653484344482 C 69.9695873260498 88.6239144007365 63.826266606648765 88.53300253550212 59.84042167663574 88.11081218719482 C 55.85457674662272 87.68862183888753 51.86731274922689 87.30427837371826 48.08035087585449 86.19339275360107 C 44.293389002482094 85.08250713348389 40.37011528015137 83.5847094853719 37.11865043640137 81.4454984664917 C 33.86718559265137 79.3062874476115 29.676740646362305 76.53598308563232 28.571561813354492 73.35812664031982 C 27.46638298034668 70.18027019500732 28.433439254760742 65.26248455047607 30.487577438354492 62.3783597946167 C 32.54171562194824 59.494235038757324 36.92793083190918 57.43740622202555 40.89639091491699 56.053378105163574 C 44.864850997924805 54.6693499883016 49.75559298197428 54.063570976257324 54.29833793640137 54.074191093444824 C 58.84108289082845 54.084811210632324 65.84377352396648 55.77661418914795 68.15286064147949 56.117098808288574" fill="none" stroke="#000000" stroke-width="12" opacity="1" data-start="0" data-end="9999" data-layer="0" class="selected"></path></g>
</svg>
