<svg xmlns="http://www.w3.org/2000/svg" viewBox="0 0 220 100" width="220" height="100" role="img" >
<g data-start="0" data-end="9999" data-layer="0" class=""><path d="M 34.838478088378906 64.75065755844116 C 47.37682851155599 63.09351232647896 84.05200958251953 54.41565269231796 110.0685806274414 54.80778616666794 C 136.08515167236328 55.199919641017914 176.3216323852539 71.71176587541898 190.93790435791016 67.10345840454102 C 205.5541763305664 62.49515093366305 200.71851348876953 35.49749530851841 197.7662124633789 27.157941341400146 C 194.81391143798828 18.818387374281883 192.1391576131185 19.495862474044163 173.2240982055664 17.066134601831436 C 154.3090387980143 14.636406729618708 110.25709788004558 11.190609559416771 84.2758560180664 12.57957410812378 C 58.294614156087235 13.968538656830788 25.71882883707682 17.019609133402504 17.336647033691406 25.399921894073486 C 8.95446523030599 33.78023465474447 31.208412170410156 56.6178625424703 33.982765197753906 62.86145067214966" fill="#ffffff" stroke="#000000" stroke-width="8" opacity="1" data-start="0" data-end="9999" data-layer="0" class=""></path><path d="M 44.838111877441406 41.269596099853516 C 51.11236317952474 41.130364100138344 76.20936838785808 40.57343610127767 82.4836196899414 40.4342041015625" fill="none" stroke="#000000" stroke-width="8" opacity="1" data-start="0" data-end="9999" data-layer="0" class=""></path><path d="M 64.2360610961914 54.0889778137207 C 64.1667251586914 49.877305348714195 63.889381408691406 33.03061548868815 63.820045471191406 28.81894302368164" fill="none" stroke="#000000" stroke-width="8" opacity="1" data-start="0" data-end="9999" data-layer="0" class=""></path><path d="M 104.6586685180664 40.58082580566406 C 110.93291982014973 40.44159380594889 136.02992502848306 39.88466580708822 142.3041763305664 39.74543380737305" fill="none" stroke="#000000" stroke-width="8" opacity="1" data-start="0" data-end="9999" data-layer="0" class=""></path><path d="M 175.8119888305664 51.01148223876953 C 175.76995595296225 47.7141056060791 175.60182444254556 34.52459907531738 175.5597915649414 31.227222442626953" fill="none" stroke="#000000" stroke-width="8" opacity="1" data-start="0" data-end="9999" data-layer="0" class=""></path><path d="M 159.1110610961914 40.33998680114746 C 165.38531239827475 40.20075480143229 190.48231760660806 39.64382680257162 196.7565689086914 39.504594802856445" fill="none" stroke="#000000" stroke-width="8" opacity="1" data-start="0" data-end="9999" data-layer="0" class=""></path><path d="M 120.8776626586914 30.09915065765381 C 120.83562978108723 34.33825572331747 120.66749827067058 51.294675985972084 120.6254653930664 55.53378105163574" fill="none" stroke="#000000" stroke-width="8" opacity="1" data-start="0" data-end="9999" data-layer="0" class=""></path></g>
</svg>
