<svg xmlns="http://www.w3.org/2000/svg" viewBox="0 0 220 100" width="220" height="100" role="img" >
<path d="M 9.586124420166016 22.051868438720703 C 10.10720189412435 25.716222127278645 9.29177220662435 38.91348393758138 12.712589263916016 44.03799057006836 C 16.133406321207683 49.162497202555336 25.020165761311848 51.491512298583984 30.111026763916016 52.79890823364258 C 35.20188776652018 54.10630416870117 39.398014068603516 52.97888310750326 43.257755279541016 51.88236618041992 C 47.117496490478516 50.785849253336586 49.140445709228516 48.973897298177086 53.269474029541016 46.21980667114258 C 57.398502349853516 43.46571604410807 64.49245580037434 39.29742177327474 68.03192520141602 35.35782241821289 C 71.57139460245769 31.418223063151043 74.94936498006184 25.78372319539388 74.50629043579102 22.582210540771484 C 74.06321589152019 19.38069788614909 67.64508438110352 14.87893295288086 65.37347793579102 16.148746490478516 C 63.101871490478516 17.418560028076172 62.552555084228516 30.24281183878581 60.876651763916016 30.201091766357422 C 59.200748443603516 30.159371693929035 57.608219146728516 17.19860585530599 55.318058013916016 15.898426055908203 C 53.027896881103516 14.598246256510416 47.54539362589518 19.26531219482422 47.135684967041016 22.400012969970703 C 46.72597630818685 25.534713745117188 49.870670318603516 30.70015589396159 52.859806060791016 34.70663070678711 C 55.848941802978516 38.71310551961263 60.221256256103516 42.8289680480957 65.07049942016602 46.43886184692383 C 69.91974258422852 50.04875564575195 76.20599746704102 54.8540293375651 81.95526504516602 56.36599349975586 C 87.70453262329102 57.87795766194662 93.72097142537434 57.02440897623698 99.56610488891602 55.51064682006836 C 105.41123835245769 53.99688466389974 114.03867975870769 52.00552495320638 117.02606582641602 47.28342056274414 C 120.01345189412434 42.5613161722819 117.41302871704102 30.528920491536457 117.49042129516602 27.178020477294922" fill="none" stroke="#000000" stroke-width="12" opacity="1" data-start="0" data-end="9999" data-layer="0" class=""></path>
</svg>
